<?xml version="1.0" encoding="UTF-8" standalone="no"?>
<svg
   xmlns:dc="http://purl.org/dc/elements/1.1/"
   xmlns:cc="http://creativecommons.org/ns#"
   xmlns:rdf="http://www.w3.org/1999/02/22-rdf-syntax-ns#"
   xmlns:svg="http://www.w3.org/2000/svg"
   xmlns="http://www.w3.org/2000/svg"
   xmlns:xlink="http://www.w3.org/1999/xlink"
   height="100pt"
   version="1.1"
   viewBox="0 0 400.00001 100"
   width="400pt"
   id="svg2559">
  <metadata
     id="metadata2563">
    <rdf:RDF>
      <cc:Work
         rdf:about="">
        <dc:format>image/svg+xml</dc:format>
        <dc:type
           rdf:resource="http://purl.org/dc/dcmitype/StillImage" />
        <dc:title></dc:title>
      </cc:Work>
    </rdf:RDF>
  </metadata>
  <defs
     id="defs2544"
     style="stroke-linecap:butt;stroke-linejoin:round">
    <linearGradient
       id="linearGradient6852">
      <stop
         style="stop-color:#ff000f;stop-opacity:1"
         offset="0"
         id="stop6848" />
      <stop
         style="stop-color:#71808e;stop-opacity:0.092"
         offset="1"
         id="stop6850" />
    </linearGradient>
    <style
       type="text/css"
       id="style2542">
*{stroke-linecap:butt;stroke-linejoin:round;}
  </style>
    <linearGradient
       xlink:href="#linearGradient6852"
       id="linearGradient6854"
       x1="73.271179"
       y1="174.64137"
       x2="78.423111"
       y2="176.61551"
       gradientUnits="userSpaceOnUse" />
  </defs>
  <g
     id="figure_1"
     style="stroke-linecap:butt;stroke-linejoin:round"
     transform="matrix(1,0,0,0.50194614,0,-74.415509)">
    <g
       id="axes_1"
       style="stroke-linecap:butt;stroke-linejoin:round"
       transform="translate(-41.735595,174.99662)">
      <path
         id="path2549"
         style="fill:url(#linearGradient6854);fill-opacity:1;fill-rule:nonzero;stroke:#000000;stroke-width:1.5;stroke-linecap:square;stroke-linejoin:round;stroke-opacity:1"
         d="m 74.057288,295.56469 1.798209,-36.38319 1.011385,-7.05156 1.011385,-5.67288 1.011385,-4.82399 1.011385,-5.43146 1.011384,3.68505 1.011385,6.24497 1.011385,0.0747 1.011385,1.02727 2.02277,-0.17136 1.011385,0.63435 1.011385,-1.18048 1.011384,0.69428 1.011385,2.84989 1.011385,-1.45957 1.011385,0.13684 1.011385,4.03867 1.011385,1.21918 1.011385,-1.24305 1.011385,-2.27113 2.022769,-3.05893 1.011385,-5.7246 1.011381,-7.33391 1.01139,-0.15898 1.01138,-0.63922 1.01139,0.17955 1.01138,-2.60488 1.01139,-1.78083 1.01138,-3.70427 1.01139,-4.29872 1.01138,0.78897 1.01139,0.033 1.01138,-1.50072 1.01139,-0.87779 1.01138,-1.58421 1.01139,-2.05568 1.01138,-1.39266 1.01139,-4.69645 1.01138,-4.14072 1.01139,-4.97667 1.01138,-1.63543 1.01139,3.5969 1.01138,1.36193 1.01139,-4.10287 1.01138,0.80425 1.01139,-2.29485 2.02277,-6.55384 1.01138,-4.21318 1.01139,-4.74903 1.01138,-2.19179 3.03415,-14.36961 1.01139,-0.67424 1.01138,-3.20476 1.01139,-0.78615 1.01138,7.0892 1.01139,8.76169 1.01138,2.79565 1.01139,-3.1039 1.01138,-2.32638 1.01139,1.85223 1.01138,1.32272 1.01139,-2.14989 1.01138,-0.47019 1.01139,-4.90606 1.01138,-1.9365 1.01139,-1.06056 1.01138,-1.2965 1.01139,3.30859 1.01138,-0.71463 1.01139,0.13869 1.01138,1.0355 1.01139,-1.49175 1.01138,-0.8887 1.01139,-1.64762 1.01138,-1.38437 2.02277,-2.29668 2.02277,-2.46024 1.01139,-1.13361 1.01138,-0.83537 1.01139,2.45781 1.01138,1.52474 1.01139,-0.94843 1.01138,-0.43577 1.01139,-0.13674 1.01138,0.25612 1.01139,-0.10449 1.01138,-0.99625 1.01138,-0.26129 2.02277,-1.72056 1.01139,-0.47086 2.02277,-0.27555 2.02277,-2.57007 4.04554,-6.0699 2.02277,-2.60078 2.02277,-2.70349 1.01138,-0.91719 1.01139,-0.73688 4.04554,-5.89715 2.02277,-2.92752 2.02277,-2.65316 2.02277,-2.01411 2.02277,-2.41501 1.01138,-1.0828 1.01139,-1.27201 1.01138,-1.61447 1.01139,-1.08424 1.01138,-1.43596 1.01139,-1.02262 1.01138,0.98985 2.02277,7.34064 1.01139,3.05119 1.01138,4.12316 1.01138,3.64897 2.02277,8.22369 2.02277,8.08872 1.01139,2.62166 1.01138,1.40251 1.01139,-0.35073 1.01138,-0.53262 1.01139,-1.0748 1.01138,-0.3991 1.01139,-0.63544 3.03415,-2.46959 3.03416,-3.63033 1.01138,-0.49322 1.01139,1.3396 1.01138,-0.0558 1.01139,-0.83798 1.01138,-0.0897 1.01139,-0.34039 1.01138,-1.20832 1.01139,-1.62459 3.03415,-4.38738 1.01139,-0.9644 1.01138,-0.22247 1.01139,0.73683 1.01138,2.11296 1.01139,-0.59826 1.01138,-0.32946 3.03416,-1.76065 1.01138,-0.33366 1.01139,-0.0648 1.01138,-0.24646 1.01138,-1.60283 1.01139,0.19905 1.01138,-0.26411 2.02277,-1.00205 1.01139,-1.09935 2.02277,-1.42594 1.01138,-0.6482 1.01139,-0.46211 1.01138,-0.74768 1.01139,-0.4227 1.01138,-0.81059 1.01139,-0.21769 1.01138,-0.62508 1.01139,-0.27041 1.01138,-0.56369 1.01139,-0.34692 2.02277,-1.81321 1.01138,-0.70843 1.01139,-0.10957 1.01138,-0.34088 1.01139,-0.92606 1.01138,-0.76963 1.01139,-1.04528 1.01138,-1.46324 1.01139,-0.33619 1.01138,-0.0146 1.01139,0.45382 1.01138,-0.57524 1.01139,-1.68672 2.02277,-1.08817 3.03415,-3.36144 2.02277,-2.31901 2.02277,-1.75021 1.01138,-1.30547 1.01139,-0.74036 2.02277,-1.91161 1.01138,-0.12574 1.01139,-0.45167 1.01138,-0.81917 1.01139,-1.06905 1.01138,-0.61666 2.02277,-0.81793 1.01139,-0.1385 2.02277,-0.55725 1.01138,-0.60826 1.01139,-0.95201 2.02277,-2.403767 1.01138,-2.812211 2.02277,-10.956177 1.01139,-3.866263 1.01138,-6.007772 1.01139,-4.112179 3.03415,-17.038791 1.01139,0.700084 2.02277,21.110007 1.01138,8.561645 1.01139,6.591988 2.02277,17.358146 1.01138,5.93082 1.01139,6.93881 1.01138,4.01052 2.02277,15.61652 1.01138,8.54916 1.01139,7.0576 1.01138,2.0709 2.02277,10.0387 1.01139,2.69585 2.02277,3.73771 1.01138,3.60703 1.01139,0.22894 1.01138,3.48771 1.01139,-0.44914 1.01138,-0.31044 1.01139,8.24096 3.03415,10.07368 2.02277,5.86499 1.01139,0.3248 1.01138,5.01292 2.02277,11.31283 1.01139,4.48384 1.01138,2.63071 1.01139,3.85223 1.01138,0.70155 1.01139,2.01443 2.02277,6.16251 1.01138,2.13823 1.01139,3.44737 1.01138,3.03626 1.01139,1.09665 1.01138,2.08961 1.01139,1.29836 1.01138,2.93122 1.01139,2.40865 1.01138,3.02583 1.01139,0.15789 1.01138,2.30577 1.01138,-0.5255 1.01139,3.3628 1.01138,2.73626 1.01139,1.7603 1.01139,1.02424 1.01138,1.78142 1.01138,1.146 1.01139,-1.04808 1.01138,-5.50546 2.02277,-13.90418 1.01139,-0.19847 1.01138,1.90918 1.01139,5.17474 2.02277,24.25845 1.01138,-1.29083 1.01139,-3.96341 1.01138,7.66035 1.01139,0.41929 1.01138,1.47742 1.01139,1.00623 1.01138,2.4954 v 0"
         clip-path="url(#pfefec6138c)"
         transform="matrix(1.2224385,0,0,0.70845785,-47.604483,-40.621973)" />
      <text
         transform="scale(0.80842036,1.2369802)"
         xml:space="preserve"
         style="font-style:normal;font-variant:normal;font-weight:bold;font-stretch:normal;font-size:18.55470276px;line-height:1.25;font-family:sans-serif;-inkscape-font-specification:'sans-serif, Bold';font-variant-ligatures:normal;font-variant-caps:normal;font-variant-numeric:normal;font-feature-settings:normal;text-align:start;letter-spacing:0px;word-spacing:0px;writing-mode:lr-tb;text-anchor:start;fill:#000000;fill-opacity:1;stroke:none;stroke-width:0.92773521;stroke-linecap:butt;stroke-linejoin:round"
         x="345.5787"
         y="10.58555"
         id="text6846"><tspan
           id="tspan6844"
           style="font-style:normal;font-variant:normal;font-weight:bold;font-stretch:normal;font-size:18.55470276px;font-family:sans-serif;-inkscape-font-specification:'sans-serif, Bold';font-variant-ligatures:normal;font-variant-caps:normal;font-variant-numeric:normal;font-feature-settings:normal;text-align:start;writing-mode:lr-tb;text-anchor:start;stroke-width:0.92773521;stroke-linecap:butt;stroke-linejoin:round"
           x="345.5787"
           y="10.58555">2609m</tspan></text>
    </g>
  </g>
  <defs
     id="defs2557">
    <clipPath
       id="pfefec6138c"
       style="stroke-linecap:butt;stroke-linejoin:round">
      <rect
         height="266.112"
         width="357.12"
         x="57.599998"
         y="41.472"
         id="rect2554"
         style="stroke-linecap:butt;stroke-linejoin:round" />
    </clipPath>
  </defs>
</svg>
