<?xml version="1.0" encoding="UTF-8" standalone="no"?>
<svg
   xmlns:dc="http://purl.org/dc/elements/1.1/"
   xmlns:cc="http://creativecommons.org/ns#"
   xmlns:rdf="http://www.w3.org/1999/02/22-rdf-syntax-ns#"
   xmlns:svg="http://www.w3.org/2000/svg"
   xmlns="http://www.w3.org/2000/svg"
   id="svg2"
   height="755"
   width="570"
   version="1.1">
  <defs
     id="defs4" />
  <metadata
     id="metadata7">
    <rdf:RDF>
      <cc:Work
         rdf:about="">
        <dc:format>image/svg+xml</dc:format>
        <dc:type
           rdf:resource="http://purl.org/dc/dcmitype/StillImage" />
        <dc:title></dc:title>
      </cc:Work>
    </rdf:RDF>
  </metadata>
  <path
     d="m 418.56516,8.49165 c 0.21704,-4.70849 6.17312,-4.15887 8.72257,-1.27833 l 12.93333,14.58763 c 1.50486,1.69729 3.3161,2.95427 4.88758,4.81247 2.14511,2.5363 3.936,4.46733 5.71473,5.71473 2.83547,1.98836 5.58051,4.8009 8.27139,7.66978 2.10043,2.2394 3.86839,4.7756 6.24112,5.71473 1.14856,0.45464 2.26144,1.16032 3.38371,2.2558 0.71299,0.6959 1.38616,1.41532 2.63177,2.1806 1.20401,0.73978 1.1116,0.86935 2.48145,2.03026 2.19156,1.85741 5.63013,4.45498 8.12096,4.58683 2.88983,0.15299 5.75061,2.56881 8.19608,4.36128 3.76828,2.76194 8.07342,4.0038 12.10628,4.36129 4.90784,0.43497 12.89567,1.20015 15.48999,1.57898 4.77807,0.69778 10.22832,0.74235 11.50467,-0.67672 1.89941,-2.1118 4.20107,-2.4173 5.33876,-3.75968 1.63493,-1.92915 2.92838,-2.95536 3.23328,-4.58682 0.57542,-3.07871 2.17437,-5.45104 5.11323,-8.12096 5.83471,-5.30062 5.18349,-6.07963 4.88758,0.82714 -0.10398,2.42689 -0.58155,4.82581 -2.03017,6.46667 -1.4675,1.6621 -2.08522,3.17102 -2.7822,3.9101 -1.73801,1.84298 -1.68672,7.47903 -1.27833,10.45199 0.26794,1.94991 1.18345,4.4697 1.27833,5.48918 0.1186,1.27369 0.63284,2.63039 1.57908,3.68447 1.03382,1.15162 1.56347,1.98322 2.03027,2.93262 0.4327,0.88023 0.83545,1.83487 1.6542,2.70699 1.35562,1.44388 1.84643,3.15026 2.7822,4.58683 2.7145,4.16707 5.67252,5.6407 9.70004,3.98522 14.62707,-6.01223 4.10066,-0.54379 2.55656,2.18069 -2.04756,3.61291 -3.80346,6.64852 -8.27129,8.12096 -3.10855,1.02442 -6.23035,2.69493 -8.49693,5.41398 -2.48579,2.98174 -4.6144,4.843 -7.14348,1.72941 -4.21402,-5.18814 -6.53209,0.52125 -4.28607,3.23338 3.07771,3.71629 2.25788,3.16578 -0.90227,3.3085 -1.96216,0.089 -4.26373,0.2283 -6.46666,-0.60151 -4.04521,-1.52394 -7.83355,-3.41801 -11.80553,0.0751 -1.02719,0.90345 -1.03499,1.62326 -3.23328,3.38381 -4.04897,3.24247 -6.82375,6.49671 -9.62483,9.92559 -1.086,1.32933 -1.68573,3.01841 -2.85742,3.75967 -1.91769,1.2132 -2.59945,2.66647 -3.15816,4.28608 -0.76311,2.21202 -2.26975,3.33488 -3.00775,4.58682 -2.34238,3.97405 -2.43657,8.37487 -2.63177,13.98612 l -0.30075,8.64726 c -0.22199,6.38117 0.0237,6.30576 -4.9628,3.38371 -2.47571,-1.4506 -4.97159,-2.14857 -9.32408,-3.00774 -3.62309,-0.71517 -7.33423,-1.02957 -10.75273,-2.55656 -0.83921,-0.37489 -1.63187,-1.35513 -3.00775,-1.6543 -1.41492,-0.30767 -2.38953,-1.13858 -3.75977,-2.33102 -0.75984,-0.66131 -1.51573,-1.49231 -2.63178,-1.95505 -1.90731,-0.79068 -2.18741,-1.35641 -3.00774,-2.10538 -1.64451,-1.5015 -3.15115,-3.29199 -5.63951,-4.58683 -2.18445,-1.1367 -3.62774,-2.09352 -5.18844,-3.38371 -1.4077,-1.16378 -3.00863,-1.67515 -5.63951,-1.72951 -3.89924,-0.081 -7.56986,-0.37656 -11.12871,0.67672 -1.00831,0.29848 -2.89517,0.5768 -4.58682,0.97758 -3.91218,0.92667 -3.90685,1.76321 -5.03801,3.08295 l -8.12096,9.47441 c -3.06764,3.57881 -2.68722,2.88519 -3.91011,-0.22554 -1.02452,-2.60608 -1.63739,-4.14266 -2.93253,-5.86516 -1.33723,-1.77843 -2.83468,-3.38727 -6.6923,-3.30849 -1.22229,0.0247 -2.66963,0.35155 -4.4364,0.6015 -1.04804,0.14826 -1.96721,0.18621 -3.38381,1.35345 -0.83575,0.68878 -1.20628,0.9158 -2.03016,1.57908 -2.9609,2.3835 -2.36196,5.16867 -2.25591,7.82021 l 0.15043,3.75968 c 1.52571,3.81532 5.37987,5.29438 8.42171,5.94037 1.95081,0.41421 6.03377,0.45849 8.57215,0.15033 2.12722,-0.25816 3.21371,0.48448 3.08295,2.70698 l -0.15042,2.55666 c -0.0811,1.37302 1.09914,1.57098 2.03026,1.95505 3.41919,1.41018 6.41527,2.7234 8.94811,3.23329 3.84072,0.77338 3.38154,2.24622 1.80463,4.13574 -1.33299,1.59717 -2.57505,2.58819 -3.53414,3.83489 -1.58679,2.06259 -3.2743,2.19453 -5.18833,1.57909 -1.04716,-0.33673 -2.12693,-0.46828 -3.75968,-0.67682 -1.49181,-0.19046 -2.64285,-1.02245 -3.68456,-2.40614 -1.69176,-2.24731 -2.81798,-1.41245 -3.60935,-0.52639 -1.7643,1.97561 -3.65037,3.97859 -4.88758,6.16591 -0.79632,1.4079 -1.48312,2.30848 -0.97748,5.71473 0.3389,2.28328 -0.12453,4.04333 -0.5264,5.71473 -0.28009,1.16536 -1.24512,1.93528 -1.87983,2.7822 -1.35019,1.80156 -2.75512,1.80166 -4.4365,0.60151 -0.84247,-0.60132 -1.98935,-0.49833 -3.23329,-0.90227 -2.63236,-0.85492 -3.74544,-3.00418 -4.88758,-4.81246 -1.16289,-1.8409 -1.53362,-7.54921 0.97748,-9.47441 l 2.25581,-1.72951 c 1.48341,-1.05368 1.72091,-1.86314 1.80462,-3.75968 l -0.60151,-4.73725 c -0.20132,-1.58521 -0.96798,-2.57376 -3.38371,-4.66194 -0.79809,-0.68987 -1.21843,-1.92461 -2.2558,-2.55666 -1.53342,-0.93429 -3.11666,-1.82785 -4.4365,-3.15817 -0.73504,-0.74077 -1.70332,-1.53579 -3.00774,-2.10538 -2.51752,-1.09924 -2.3922,-2.33151 -2.55656,-4.51161 l 0,-8.04585 c 0,-1.50852 -0.085,-3.08305 0.97747,-4.36119 0.66506,-0.80026 0.60813,-2.13453 1.57909,-3.38371 1.53688,-1.97748 2.17585,-2.99232 3.08295,-3.45892 1.36481,-0.70212 2.3159,-0.98439 3.08296,-1.6543 1.1531,-1.00702 1.92995,-1.33733 2.48144,-1.57908 1.59194,-0.69797 2.60114,-1.63265 3.3085,-2.25581 2.21914,-1.95505 4.13308,-3.88075 5.71473,-5.86515 2.24256,-2.81353 3.39537,-7.31783 0.60161,-9.3993 -1.94072,-1.44575 -3.14236,-2.98115 -3.60935,-4.81236 -0.43705,-1.7136 -1.21686,-3.5714 1.50387,-6.01549 2.24325,-2.01524 8.03982,-2.31234 11.1287,-0.82715 1.77251,0.85216 0.62167,3.27154 5.48919,2.78221 3.14621,-0.31637 6.63271,-0.0514 9.17365,-0.15043 5.31406,-0.20696 7.69439,-3.84448 8.42172,-7.2186 l 0.22564,-11.05359 c 0.0356,-1.76361 0.30787,-3.09225 -1.05279,-3.15807 -3.57594,-0.17316 -0.71467,-5.58624 0.15043,-6.31634 1.51079,-1.27497 2.09866,-1.94378 2.93253,-2.48144 1.26439,-0.81509 2.61309,-2.34575 2.55666,-4.81237 l -0.22564,-9.85038 c -0.0415,-1.81529 -0.16733,-2.79514 -1.27823,-3.23338 -1.94399,-0.76686 -1.08017,-2.22339 0.15032,-3.00784 1.41996,-0.90523 1.18266,-1.86738 1.20312,-2.93253 L 421.5729,53.232 c 0.0316,-1.65588 0.28929,-3.13375 1.35354,-4.4364 0.86669,-1.06069 0.95079,-3.26362 0.37597,-4.96279 -0.34058,-1.00663 -0.94624,-2.01781 -1.1279,-3.23338 -0.18472,-1.23564 -1.19828,-2.75878 -3.38371,-4.81237 -1.87351,-1.76055 -3.54867,-3.60075 -3.68456,-4.96279 -0.1105,-1.10854 -1.52651,-1.76411 -2.1806,-2.85742 -1.9087,-3.19009 -1.07858,-7.44108 0.60151,-9.62483 l 2.93263,-2.25581 c 1.55082,-1.19293 2.01593,-1.32972 2.03017,-2.33102 l 0.0751,-5.26355 z"
     id="path2920-3"
     style="fill:none;fill-opacity:1;fill-rule:evenodd;stroke:#000000;stroke-width:0.75590551;stroke-miterlimit:4;stroke-dasharray:none;stroke-opacity:1" />
  <path
     d="m 409.31639,211.51561 c -0.42538,-4.69821 5.24823,-6.08852 7.36903,-3.30859 2.64907,3.47266 6.27947,3.24988 8.27129,1.80472 2.70847,-1.96513 4.57546,-2.45496 4.58683,1.50387 0.01,3.35426 0.21051,4.58288 0.30085,5.71473 0.12641,1.58432 -0.0217,3.32046 0.52629,4.81247 0.44269,1.20549 1.65213,1.35799 1.95506,5.18833 0.14607,1.84624 -0.0652,5.37365 -0.22555,7.2186 -0.25232,2.90011 0.11732,4.65839 0.75194,5.86516 0.69451,1.32073 1.56861,3.26876 2.33102,3.83489 2.04657,1.51978 3.74505,3.87867 4.96279,5.5644 1.29316,1.7902 2.75641,3.49233 4.06044,4.66204 2.87105,2.57514 5.19545,6.0059 6.91784,8.72247 2.37629,3.74792 4.11529,8.27989 8.42172,12.25661 2.53373,2.33962 4.80238,8.05168 6.31633,13.15897 1.19156,4.01981 2.85119,8.22088 0.45119,15.03881 -0.51217,1.45485 -0.71438,3.63791 -0.75194,4.36128 -0.17938,3.44608 -1.29266,6.96895 -1.6543,9.17365 -0.22791,1.38942 -3.11962,5.78985 -4.36128,6.76742 -4.56004,3.59048 -7.89789,14.00164 -4.81237,22.25741 0.68522,1.83339 1.72882,4.60907 3.00774,6.0907 1.8243,2.11338 1.51811,5.18339 -1.35344,4.51171 -0.81005,-0.18957 -1.62139,-0.28909 -2.25591,-0.82715 -1.24789,-1.05832 -4.67063,-1.41946 -6.84263,-0.22564 -2.24177,1.23227 -5.4629,4.07822 -7.74499,6.16591 -1.50012,1.37242 -2.647,4.14958 -2.55656,5.94037 0.16663,3.29931 0.46887,6.83463 0.90236,9.92559 0.34345,2.44952 1.63305,5.44521 3.15807,7.36903 2.40771,3.03729 4.32817,8.00967 5.41397,11.73021 0.56138,1.92332 0.6028,4.68368 1.1279,6.61709 0.46542,1.7131 1.23702,4.06834 1.27833,6.01558 0.0504,2.37817 -0.0573,5.41299 -0.15032,7.36893 -0.13778,2.89804 -0.93785,6.24646 -2.25591,7.82021 -3.18821,3.80702 -2.75897,5.71354 -3.30849,7.36902 -4.54058,-3.09896 -9.95663,-3.21124 -11.89498,0.57532 -1.28939,2.5191 -2.34386,5.11303 -7.6763,0.30945 -2.82885,-2.54816 -5.51479,-5.0464 -8.03804,-7.81417 -7.68599,-8.43062 -13.35288,-0.42618 -17.86894,4.77797 -1.43756,1.65657 -3.63416,2.81323 -5.54088,4.15185 -2.96485,2.08136 -6.60217,1.66458 -10.72042,0.48874 -0.55189,-2.92403 -1.08926,-5.76276 -3.71352,-8.05524 -1.83655,-1.60438 -2.79584,-3.41217 -2.8075,-9.77783 -0.01,-3.27558 0.28434,-5.88947 5.51923,-6.45618 2.16112,-0.23395 9.07314,-2.43668 8.25103,-9.60616 -0.37666,-3.28477 0.42272,-4.69851 3.87482,-9.62345 -3.20403,-1.77122 -5.83768,-5.73815 -5.45222,-9.24234 0.26596,-2.41809 0.0119,-4.23913 3.80425,-7.0997 5.27659,-3.97988 2.91849,-6.81328 -3.41653,-11.55073 -2.24266,-1.67723 -5.54325,-3.11122 -7.73036,-5.67777 0.38822,-1.05763 0.57492,-1.8234 0.54814,-2.62396 -0.0949,-2.85238 1.35295,-5.57725 3.30859,-8.19618 2.16577,-2.9004 4.70316,-10.12306 4.51161,-12.2566 -0.31834,-3.54551 -0.48893,-6.68855 1.05269,-8.79769 1.02769,-1.40602 1.52453,-3.82768 1.6543,-5.5644 0.24323,-3.25562 0,-11.23327 0,-15.18914 0,-1.63048 0.0583,-4.0795 -1.20312,-5.11322 -1.29562,-1.06218 -2.03253,-3.25661 -1.95505,-4.96279 0.0672,-1.48806 -0.13412,-3.50073 0.15043,-4.96279 0.59568,-3.06092 -1.92135,-6.11749 -2.03027,-0.15043 -0.0247,1.44516 -0.37043,2.17041 -0.75193,3.00774 -2.88875,6.34095 -9.61268,3.32807 -9.39929,-0.15033 0.19045,-3.104 2.98698,-5.72036 4.66204,-6.91784 1.72881,-1.23583 4.35624,-5.28737 4.51171,-8.94811 0.084,-1.98332 0.3643,-4.87958 0.30075,-6.54188 -0.0682,-1.78407 -0.34908,-3.88214 -2.18069,-5.26355 -1.27181,-0.95939 -2.56852,-2.54945 -3.08296,-3.45892 -0.62226,-1.10033 -1.47125,-2.60816 -2.40613,-3.45893 -3.42631,-3.11794 -0.51602,-4.85457 1.50387,-5.86515 0.99645,-0.49862 2.52592,-0.74433 3.45892,-1.35355 4.89905,-3.19888 6.12381,-6.39303 6.99306,-9.62483 0.34701,-1.29019 -0.11178,-11.24572 -0.0751,-12.33182 0.0702,-2.078 1.13077,-6.70644 3.00774,-6.0907 1.23336,0.40463 2.98748,-0.31913 3.9101,-0.82715 4.04097,-2.22477 5.58842,1.43311 6.6171,4.4365 0.37507,1.09509 -0.22821,5.12281 0,7.44414 0.21061,2.14353 1.90227,3.80949 3.15816,5.18844 1.22981,1.35048 4.16481,2.72725 5.71473,-1.87984 0.9077,-2.69829 3.93037,-5.12449 7.51936,-1.57908 1.7894,1.76766 2.5612,2.16902 4.81246,-1.35355 1.00545,-1.57325 0.16921,-8.56937 0.22555,-11.80542 0.084,-4.84983 -2.97394,-4.64979 -5.63952,-1.50387 -1.14658,1.35314 -5.1994,6.1918 -11.88064,3.45892 -2.64769,-1.08303 -0.0712,-5.66966 1.05269,-7.66978 0.6364,-1.13255 1.68326,-2.98116 1.50387,-4.9628 z"
     id="rect4335-7"
     style="fill:none;fill-opacity:1;stroke:#000000;stroke-width:0.75590551;stroke-miterlimit:4;stroke-dasharray:none;stroke-opacity:1" />
  <path
     d="m 381.41433,434.47377 c -1.46671,-2.63701 -8.38999,-2.13523 -10.63572,4.45775 -1.96197,5.75979 -3.99124,8.92439 -8.27237,8.72029 -2.85732,1.77399 -4.84014,4.5809 -7.46154,6.66355 -4.66392,3.70531 -5.21018,11.6462 3.65699,12.26155 3.83182,0.26823 3.63346,4.86237 3.2485,8.18629 -0.51967,4.48581 0.75421,6.81911 2.89576,8.53804 2.18682,1.75521 4.15976,3.74001 6.78373,6.0309 2.52493,2.20452 5.75752,3.52801 9.93122,4.5555 1.58956,0.95 3.18199,1.31796 4.28054,2.41038 3.88846,3.86682 0.18768,8.71002 -3.22785,9.17978 -2.91326,0.40068 -5.04097,3.55213 -4.74901,4.88077 1.3142,0.13135 2.41285,0.11949 3.13612,0.81953 2.23229,2.16053 1.77666,3.9446 1.78506,5.14199 0.0217,3.12496 2.51653,5.65434 5.98613,5.73083 -0.19253,-1.58353 0.1868,-3.39418 0.46779,-4.34517 0.77387,-2.61883 2.748,-4.21995 4.51171,-5.18843 2.08689,-1.14599 5.36673,-0.86352 7.74489,-0.97748 3.30415,-0.15833 4.13179,1.58729 4.51171,3.60925 1.04647,5.57043 10.79307,0.54201 4.21086,-7.51935 -0.89682,-1.09836 -2.07731,-3.43975 -2.2558,-5.71473 -0.25717,-3.27717 -0.16358,-6.21504 3.15807,-7.745 1.19125,-0.54863 2.86759,-1.18463 4.06053,-1.72951 4.98503,-2.27656 12.27815,-0.34246 7.14338,5.41398 -0.81726,0.91629 -2.91829,3.06111 -3.83489,3.98531 -1.55091,1.56406 -3.22488,0.34711 -3.23328,7.06828 0,2.75205 -0.082,6.50125 0.0751,9.24886 0.0633,1.09499 0.57651,2.89398 1.05279,3.98522 0.52373,1.19985 0.60715,2.53511 0.45118,3.83489 -0.3392,2.82658 1.35266,3.85565 3.15807,3.60935 2.36957,-0.32329 4.4618,-2.16695 4.9628,-4.51161 0.19994,-0.93538 0.36806,-3.16717 3.53413,-5.03801 1.54707,-0.91412 3.62438,-3.14157 5.63962,-3.98532 2.50991,-1.05081 4.42098,-2.44932 3.9101,-8.49693 -0.254,-3.00655 0.44268,-6.896 0.37597,-9.32408 -0.0969,-3.50191 -0.53756,-7.82416 4.4364,-9.85037 1.81263,-0.7384 3.72153,-2.16735 5.48919,-3.00774 5.04423,-2.39833 2.58769,-4.89213 0.52629,-6.91785 -1.64075,-1.61249 -4.06349,-4.12171 -5.5643,-5.86515 -3.26155,-3.78874 -5.35882,-9.61733 -5.33876,-14.58763 0.0119,-2.93253 0.0247,-6.99474 -0.0751,-9.92559 -0.085,-2.48085 0.679,-5.78787 1.80463,-8.12096 1.13037,-2.34278 2.52306,-5.15127 3.45902,-7.97054 -4.54057,-3.09896 -9.95662,-3.21134 -11.89487,0.57532 -1.2895,2.519 -2.34387,5.11302 -7.6764,0.30945 -2.82875,-2.54816 -5.51479,-5.0465 -8.03794,-7.81418 -7.68609,-8.43071 -13.35299,-0.42627 -17.86905,4.77798 -1.43755,1.65657 -3.63415,2.81323 -5.54088,4.15175 -2.96484,2.08146 -6.60216,1.66468 -10.72041,0.48884 z"
     id="rect4337-4"
     style="fill:none;fill-opacity:1;stroke:#000000;stroke-opacity:1;stroke-width:0.75590551;stroke-miterlimit:4;stroke-dasharray:none" />
  <path
     d="m 388.77189,522.05083 c -3.4696,-0.0761 -5.96448,-2.60578 -5.98613,-5.73074 -0.01,-1.19739 0.44723,-2.98146 -1.78506,-5.14199 -0.72327,-0.70004 -1.82192,-0.68818 -3.13612,-0.81953 -0.29196,-1.32864 1.83575,-4.48009 4.74901,-4.88077 3.41553,-0.46976 7.11631,-5.31296 3.22785,-9.17978 -1.09855,-1.09242 -2.69098,-1.46038 -4.28054,-2.41038 -4.1737,-1.02749 -7.40629,-2.35098 -9.93122,-4.5555 -2.62397,-2.29089 -4.59691,-4.27569 -6.78373,-6.0309 -2.14155,-1.71893 -3.41543,-4.05223 -2.89576,-8.53804 0.38496,-3.32392 0.58332,-7.91806 -3.2485,-8.18629 -8.86717,-0.61535 -8.32091,-8.55624 -3.65699,-12.26155 2.6214,-2.08265 4.60422,-4.88956 7.46154,-6.66355 4.28113,0.2041 6.3104,-2.9605 8.27237,-8.72029 2.24573,-6.59298 9.16901,-7.09476 10.63562,-4.45775 -0.5518,-2.92423 -1.08926,-5.76286 -3.71352,-8.05544 -1.83655,-1.60438 -2.79574,-3.41217 -2.8075,-9.77783 -0.01,-3.27558 0.28444,-5.88937 5.51933,-6.45609 2.16102,-0.23394 9.07304,-2.43677 8.25093,-9.60615 -0.37666,-3.28478 0.42272,-4.69861 3.87482,-9.62355 -3.20403,-1.77112 -5.83768,-5.73815 -5.45223,-9.24234 0.26597,-2.41799 0.0119,-4.23913 3.80426,-7.0997 5.27659,-3.97988 2.91849,-6.81318 -3.41643,-11.55073 -2.24276,-1.67723 -5.54335,-3.11112 -7.73056,-5.67777 -0.47174,1.28505 -1.07493,2.56991 -1.78288,3.46674 -0.79147,1.00258 -0.45484,6.8194 -0.5263,9.62483 -0.17523,6.87169 -5.49502,15.28609 -11.1287,18.04655 -2.38637,1.16921 -10.15983,8.39859 -10.82795,13.76048 -0.17464,1.40167 -1.12534,4.04659 -2.85742,6.54187 -1.22288,1.76174 -2.03856,5.18528 -2.55656,6.76752 -0.62276,1.90188 -1.38823,4.1568 -2.63177,5.63952 -1.33279,1.58897 -3.01318,4.03572 -4.73726,5.18833 -1.2975,0.86748 -3.03007,2.14106 -4.21085,3.3086 -1.078,1.06583 -2.67279,2.39744 -4.06053,3.00774 -1.38478,0.60912 -2.91217,1.69195 -3.75968,2.63177 -1.13136,1.25461 -3.38233,1.91908 -4.81237,3.23339 -1.81658,1.66951 -3.49094,1.93597 -7.14348,3.15816 -1.78654,0.59766 -4.86406,0.0949 -6.31624,1.20312 -0.81312,0.62049 -2.1041,2.25996 -3.08296,2.55656 -0.56543,0.17138 -1.73781,1.42836 -1.72951,2.93253 0.0138,2.54954 -2.33981,5.63013 -6.6922,5.03801 -4.78005,-0.65034 -8.12492,-8.51789 -6.76752,-9.92559 1.94032,-2.01208 1.06395,-3.54353 -1.80463,-4.21086 -3.15026,-0.73296 -1.14767,-4.10046 1.05269,-5.26355 2.0867,-1.10319 5.85182,-3.29653 7.36903,-5.86515 0.41362,-0.70035 1.66981,-2.83488 2.33102,-3.3086 0.76854,-0.55061 2.04558,-5.03217 0.82715,-6.76742 -1.86442,-2.65529 -7.41825,-0.7885 -8.72257,1.6543 -0.74136,1.38853 -1.79672,3.50162 -7.36893,4.06043 -1.54093,0.15458 -4.73923,2.37313 -5.71483,3.75968 -0.71803,1.02057 -1.81935,2.28111 -2.70699,3.15817 -3.21094,3.17299 -1.07562,7.18836 0.60161,10.37677 1.36847,2.60153 3.1044,16.14694 -0.22564,21.05439 -0.82972,1.22288 -1.73218,3.28497 -2.55656,4.51161 -2.66261,3.9617 -6.59475,8.92024 -9.39919,12.783 -1.46365,2.01584 -3.77391,4.50302 -4.81247,6.76742 -1.18335,2.57999 -3.1048,4.65819 -4.73725,6.39145 -2.76085,2.93154 -1.05071,5.79301 1.87984,9.09854 1.37538,1.55121 5.71572,7.67749 -2.03017,11.88064 -1.15953,0.62918 -3.90595,0.16347 -4.96279,3.45892 -0.38971,1.21508 -1.71222,2.46277 -2.7822,3.15817 -1.05388,0.68483 -2.52247,0.83328 -3.91011,1.50387 -0.97322,0.47026 -2.50595,1.11298 -3.93758,0.19431 -0.90424,3.65086 4.24506,7.25764 10.37638,5.93444 2.34722,-1.77596 3.71945,-2.65391 4.82076,-3.99362 0.91571,-1.11397 1.91562,-1.42955 2.77983,-1.94359 1.0691,-0.636 1.92669,-0.8392 2.78863,-1.90543 2.33675,-2.89043 3.54481,-3.33271 4.77224,-4.60472 1.72753,-1.79029 2.24414,-2.63928 3.30197,-4.1903 1.35908,2.12969 3.503,5.08802 4.66342,8.89029 0.88102,2.88687 2.30296,2.69721 2.69899,4.68122 1.60132,8.02064 3.01782,11.02651 11.12079,10.25461 1.1792,3.7403 3.90299,3.89439 4.81395,6.75961 3.95774,-1.26074 4.66985,-2.104 4.28607,3.23328 -0.12186,1.69452 0.16535,4.11558 1.05269,5.5644 3.37808,5.51568 3.10856,2.81956 8.8729,0.90227 0.96582,-0.32122 2.29475,-0.66052 3.3085,-0.75194 7.02617,-0.63333 3.45339,3.48185 1.80472,4.51171 -10.80769,6.75052 -3.32777,4.52931 1.50387,2.70699 3.00379,-1.13304 11.85228,-2.99845 12.70779,-3.15817 6.42407,-1.19956 17.33306,0.10704 23.83649,-0.75194 2.55143,-0.33702 4.42474,1.14748 5.11313,-4.58682 0.10792,-0.899 -0.19708,-3.11103 2.7822,-5.94037 1.46888,-1.39486 2.40613,-4.24822 2.48144,-7.66978 0.0445,-2.01613 1.68682,-4.36445 3.45893,-4.9628 1.27289,-0.42983 3.09728,-1.94111 5.63951,-3.08295 2.56437,-1.15172 6.22175,-1.49221 5.94037,4.28607 -0.085,1.75076 0.0247,6.36111 -0.15043,9.32408 -0.26616,4.51438 4.35684,10.9509 6.31634,5.86506 0.47984,-1.24542 -0.78406,-2.36482 2.55656,-4.36119 1.15143,-0.68819 1.99014,-2.42343 3.15817,-3.08295 1.40158,-0.79137 2.81383,-2.47305 2.55656,-5.33877 -0.1613,-1.79751 -0.0939,-4.21333 0,-6.01558 0.0919,-1.76114 -1.02284,-3.11191 -2.18059,-4.28607 -0.54389,-0.5516 -0.8149,-1.34089 -0.91887,-2.1966 z"
     id="rect4339-3"
     style="fill:none;fill-opacity:1;stroke:#000000;stroke-opacity:1;stroke-width:0.75590551;stroke-miterlimit:4;stroke-dasharray:none" />
  <path
     d="m 242.50858,521.96049 c -0.90424,3.65086 4.24516,7.25764 10.37638,5.93444 2.34732,-1.77596 3.71955,-2.65381 4.82086,-3.99362 0.91571,-1.11397 1.91552,-1.42955 2.77983,-1.94359 1.0691,-0.6359 1.92669,-0.8392 2.78863,-1.90543 2.33675,-2.89043 3.54481,-3.33271 4.77224,-4.60462 1.72753,-1.79039 2.24404,-2.63929 3.30197,-4.1903 1.35908,2.12959 3.503,5.08792 4.66342,8.89019 0.88102,2.88687 2.30295,2.6973 2.69899,4.68132 1.60132,8.02054 3.01772,11.0265 11.12079,10.25451 1.1792,3.7403 3.90299,3.89438 4.81385,6.75951 -1.04804,0.33376 -4.3936,2.37085 -5.03801,3.53404 -0.87093,1.57206 -2.41759,4.38026 -3.15816,5.78994 -0.97659,1.85898 -1.90959,3.93264 0.30075,5.26364 1.21616,0.73227 4.0291,2.29851 5.18843,3.45893 1.01978,1.02076 3.30366,1.98075 4.73716,2.70699 3.2398,1.64135 15.42308,8.6177 4.06053,13.61005 -0.83318,0.36608 -2.82875,-0.37558 -4.4365,0.30085 -2.70402,1.13749 -7.27978,1.73801 -10.0008,3.45892 -2.75047,1.7394 -5.80457,1.80275 -5.41397,6.76742 0.37488,4.76424 -1.24216,5.55541 -5.26355,8.8729 -5.38324,4.44104 -5.21908,2.81926 -5.18844,10.37677 0.0168,4.11746 0.83911,7.76713 -2.18059,8.49693 -2.29504,0.55466 -3.83894,2.62021 -4.28607,3.00774 -1.10932,0.96156 -2.02918,2.81027 -4.51161,2.48145 -0.51681,-0.0682 -1.51079,-0.91689 -2.48145,-0.90237 -1.02927,0.0148 -2.01307,-0.40769 -3.3085,-1.50387 -1.43538,-1.21468 -3.54965,-2.46207 -5.41397,-2.70698 -0.66625,-0.088 -1.45841,-0.26982 -4.28607,-2.25581 -0.58461,-0.41066 -1.36234,-1.86393 -1.95506,-2.48145 -0.99398,-1.03559 -2.21143,-1.95623 -2.48134,-3.23328 -0.3824,-1.80848 -1.90149,-3.62941 -4.06053,-4.06053 -1.91681,-0.38269 -3.87216,-3.60797 -3.15817,-6.46666 0.56494,-2.26184 0.35511,-5.49423 0,-7.06828 -1.35364,-6.00066 -0.7378,-7.23757 1.95505,-8.64726 1.27438,-0.66713 3.36701,-2.20381 4.13574,-3.30859 0.66487,-0.95554 1.3914,-2.19621 2.33102,-3.00774 1.59164,-1.3746 2.64403,-3.3171 2.48135,-5.41398 -0.18077,-2.32924 0.43003,-5.68636 -3.9101,-5.038 -2.47651,0.37003 -6.30576,2.35276 -11.35425,0.6016 -2.04568,-0.70953 -4.90695,-1.27882 -7.36903,-1.05269 -3.15648,0.28979 -5.97249,-0.90404 -9.09843,-1.42875 -4.60482,-0.77289 -10.37816,-0.80056 -11.88074,0.90236 -4.51942,-5.41328 -7.33691,-16.90264 -1.03816,-22.31523 7.00175,-6.01657 8.32871,-11.16053 -0.69125,-21.29732 2.32607,-1.37519 1.79108,-2.26708 6.39145,-2.40624 4.55688,-0.13995 6.5738,1.38646 9.54972,1.57909 5.00657,0.32427 4.94579,-0.79602 7.36892,-2.40614 0.98638,-0.65547 1.87273,-2.19136 2.55666,-3.15817 1.62939,-2.30334 2.85346,-3.55953 4.51162,-3.30859 2.56041,0.38763 2.9682,1.83161 2.85741,3.60935 -0.13718,2.19957 -0.64727,4.3176 -0.45118,5.41397 1.0006,5.59514 3.84151,6.45441 4.81237,3.15817 0.84909,-2.88261 4.23675,-4.51438 5.18843,-2.33102 0.43557,0.99942 1.14777,2.07326 1.85236,2.52543 z"
     id="rect4341-8"
     style="fill:none;fill-opacity:1;stroke-width:0.75590551;stroke-miterlimit:4;stroke-dasharray:none;stroke:#000000;stroke-opacity:1" />
  <path
     d="m 199.60033,562.89709 c -4.51952,-5.41328 -7.33701,-16.90263 -1.03826,-22.31523 7.00175,-6.01657 8.32871,-11.16053 -0.69125,-21.29732 -1.81036,1.07038 -4.37661,2.84901 -6.46667,3.08295 -3.59897,0.40285 -5.09879,2.40515 -7.2186,3.15817 -1.76371,0.62651 -4.07872,1.38596 -5.94037,1.57909 -2.21518,0.22988 -6.56293,0.25954 -9.47441,0 -6.67975,-0.59558 -7.29371,3.062 -11.57988,3.60934 -1.70065,0.21714 -4.38916,-0.13451 -6.0907,0.0751 -1.93597,0.23859 -4.04916,-1.6199 -2.70698,-2.93253 1.20756,-1.18098 1.3056,-2.99321 -2.55666,-2.93253 -2.02049,0.0316 -4.02159,0.32161 -4.88759,1.87984 -0.72732,1.30867 -3.30701,2.82895 -5.5643,4.13565 -3.1553,1.82646 -6.13972,4.83628 -6.46676,6.39145 -0.3648,1.73504 -2.24009,3.76976 -3.68447,5.18843 -3.86938,3.8006 -9.57462,8.20181 -13.30929,12.783 -1.89941,2.32984 -3.33212,4.66718 -6.69231,7.51936 -2.26371,1.92154 -4.4531,4.83569 -6.165908,7.06827 -3.544612,4.62013 -5.376812,5.63616 -8.045748,5.26355 -3.044608,-0.42499 -6.398766,3.55153 -7.744995,6.31633 -0.975006,2.0022 -2.007346,4.82937 -5.564411,5.86516 -1.68464,0.49052 -3.902494,0.29305 -5.865058,1.87984 -0.748179,0.60487 -3.031857,0.51335 -4.361284,0.37597 -3.657087,-0.37805 -4.505387,2.03471 -4.66204,3.75967 -0.204094,2.24701 0.09093,5.75377 -0.676722,7.745 -0.694117,1.80126 0.311824,2.97601 1.729412,2.7822 0.507122,-0.0692 1.876775,1.01573 2.105479,1.35344 0.574823,0.84909 1.680587,1.35839 2.706987,0.75194 2.45318,-1.44961 2.595205,1.01661 3.158168,1.95505 0.290773,0.48479 0.675833,1.13631 0.902264,1.6543 1.227034,2.80691 3.809094,2.37876 5.564401,1.35344 0.751738,-0.43912 1.539551,-1.83773 3.458933,-2.70698 1.033318,-0.46789 2.141059,-1.41947 2.857315,-2.25581 1.440024,-1.68128 7.840272,-2.65204 13.986118,-0.52639 0.658932,0.22791 2.368479,1.26409 3.308499,1.72951 1.46384,0.72465 2.60469,1.99577 3.15817,2.70698 0.72732,0.93459 1.91393,2.10291 3.00774,2.55656 0.69332,0.28751 1.40365,0.36194 2.10548,1.20312 2.60854,3.12694 1.92935,-2.18534 2.18059,-3.60925 0.2544,-1.44111 -0.0217,-6.08151 1.95505,-7.82021 0.64974,-0.57146 2.69681,-5.7252 1.72951,-8.27139 -2.14195,-5.63763 7.68748,-8.72672 10.97828,-2.40613 2.39161,4.59335 7.44256,2.91899 9.02332,0.22554 1.1202,-1.9088 5.74379,-3.73951 8.42172,-3.98532 2.70313,-0.24797 5.91477,-1.24591 7.97054,-4.28607 0.82833,-1.22476 5.41605,-4.18684 7.8202,-2.33092 2.0192,1.55863 4.46912,1.02462 4.36129,-1.50397 -0.0702,-1.64431 2.69048,-3.28606 4.66194,-2.85731 2.32865,0.50643 3.64691,0.10763 4.36129,-1.05269 1.06978,-1.73762 3.69998,-0.35828 4.66203,0.90226 1.15687,1.51593 6.9733,0.53796 7.66979,-2.40614 0.18956,-0.80125 1.12434,-2.91444 5.86515,-5.038 1.73712,-0.77823 5.65592,-3.94855 7.745,-6.31634 z"
     id="rect4343-0"
     style="fill:none;fill-opacity:1;stroke:#000000;stroke-width:0.75590551;stroke-miterlimit:4;stroke-dasharray:none;stroke-opacity:1" />
  <path
     d="m 215.46618,580.86843 c -0.15556,-2.3752 0.6193,-3.28745 1.27833,-4.58683 0.70549,-1.3911 1.7477,-1.86244 2.1806,-2.33102 0.55782,-0.60378 1.50673,-1.61259 1.87984,-2.48144 0.37853,-0.88132 2.0438,-1.34347 2.40623,-2.33102 0.34829,-0.94912 1.67851,-1.34189 2.7822,-0.97748 1.67555,0.55328 2.37036,2.06169 1.87984,3.60935 -0.21991,0.69342 -0.36796,1.94279 -0.60161,2.63177 -0.34414,1.01494 -0.83278,1.86264 -1.57908,2.63178 -1.83616,1.89239 -1.60083,3.58553 -1.57909,3.9101 0.39603,5.90736 -4.78835,6.26732 -6.91784,3.83489 -0.80729,-0.92213 -1.53145,-0.88754 -1.72942,-3.9101 z"
     id="path3585-8"
     style="fill:none;fill-opacity:1;fill-rule:evenodd;stroke:#000000;stroke-opacity:1;stroke-width:0.75590551;stroke-miterlimit:4;stroke-dasharray:none" />
  <path
     d="m 189.14825,582.3723 c 0.9157,0.69619 3.17813,1.74433 3.75977,0.75193 0.7126,-1.21596 2.03985,-1.33703 3.60925,-0.60151 0.84544,0.39623 1.58344,1.42115 3.15817,1.50388 3.21263,0.16881 3.3934,1.80828 3.45892,2.03026 0.36045,1.22002 3.83727,1.5946 5.03801,1.35345 3.55321,-0.71379 3.83153,0.62265 3.68446,1.87983 -0.31844,2.72192 1.30324,6.27384 2.78221,6.69231 1.55852,0.4409 2.17565,2.72132 2.48144,5.48909 0.27229,2.46494 -1.19412,4.83895 -2.70699,5.86515 -4.51013,3.05934 -9.99368,8.25331 -13.00864,12.55746 -0.70637,1.00842 -1.28969,3.37887 -2.40613,5.26355 -1.04449,1.76302 -1.48084,3.56162 -2.03027,5.33876 -0.6617,2.14027 -1.92866,4.16599 -4.51161,1.35355 -1.094,-1.19126 -3.12832,-1.77102 -4.66204,-4.21086 -0.73503,-1.16922 -2.50319,-2.2562 -3.60935,-3.08296 -1.85987,-1.39031 -4.02376,-2.35019 -7.51935,-2.18069 -2.03096,0.0988 -5.12449,-0.59577 -6.54188,2.55666 -0.53944,1.19956 -2.43065,3.11508 -4.21086,3.83489 -3.39023,1.37064 -6.85983,2.73545 -6.99306,7.66978 -0.0969,3.58099 -1.13393,5.1661 -2.48144,7.2186 -1.1199,1.70579 -2.52603,4.15265 -4.28608,5.63952 -2.39229,2.02117 -4.56844,4.63684 -2.55656,6.61709 1.31273,1.29217 2.41819,5.23726 -1.50387,4.51161 -1.82251,-0.33712 -4.57071,0.0791 -6.01548,1.6543 -1.8916,2.06209 -4.41535,3.02761 -6.16591,0 -1.13996,-1.97156 -2.87017,-4.47544 -4.21086,-6.31634 -1.69334,-2.32489 -4.14078,-3.03284 -6.16591,0.75204 -1.14975,2.14877 -6.25882,8.63391 -1.50397,-0.75204 0.95751,-1.88982 2.60074,-3.99826 2.93263,-6.09069 0.45029,-2.83923 0.86826,-5.27007 1.95505,-6.24113 1.48143,-1.32349 1.57335,-2.90189 0.67672,-3.60925 -1.06317,-0.83881 -1.65341,-3.28962 -2.48145,-4.36128 -3.57169,-4.62271 -6.68795,-2.7316 -11.05349,-2.70699 -9.70271,0.0544 -4.96328,-1.02037 0,-1.80462 6.15643,-0.97284 8.42103,-5.17569 11.88064,-8.19618 0.98568,-0.86046 2.24632,-2.28605 3.38381,-2.93253 2.37293,-1.3488 2.96495,-2.55478 3.15807,-4.4365 0.16674,-1.62435 0.9074,-3.45991 1.87984,-4.28607 1.82172,-1.54746 1.64619,-3.64691 1.6543,-4.13564 0.0524,-3.17468 1.93064,-5.75931 3.9101,-7.59457 4.44609,-4.1223 6.44344,-1.02472 8.8729,2.10538 1.74957,2.25422 3.89706,5.35151 6.31634,2.2559 1.60181,-2.04983 5.03197,-2.27261 6.16581,-2.10548 4.65275,0.68592 8.64894,-3.30582 8.72257,-5.94027 0.10259,-3.67388 -0.34533,-5.43828 4.36118,-8.12096 1.60904,-0.91709 3.60174,-2.57909 4.9629,-3.83489 2.3835,-2.19927 5.49768,-3.11933 7.82011,-1.35354 z"
     id="path2468-0"
     style="fill:none;fill-opacity:1;fill-rule:evenodd;stroke:#000000;stroke-opacity:1;stroke-width:0.75590551;stroke-miterlimit:4;stroke-dasharray:none" />
  <path
     d="m 65.378947,608.08863 c 0.209036,-0.20904 2.925116,6.45826 4.511613,9.32408 2.349403,4.24387 7.421607,7.91479 10.752736,8.3465 3.875522,0.50228 6.067777,-0.71843 6.692315,-1.42866 5.22856,-5.9463 14.781249,2.05191 8.421716,9.02333 -2.339321,2.56437 -3.745247,7.08063 2.932529,6.84263 3.830744,-0.13649 4.666984,3.22775 5.789944,4.88758 1.50209,2.22042 3.04154,5.6153 4.66204,7.51945 2.21499,2.60252 2.09619,6.50373 -0.30076,9.02323 -2.13602,2.24523 -2.1287,3.37847 -2.2558,5.03801 -0.2211,2.88686 -2.86374,5.54246 -4.13565,6.6923 -4.370277,3.95073 -4.524558,11.30404 -4.586923,13.3093 -0.155764,5.0135 -1.496853,5.78095 -2.556561,8.04575 -2.331019,4.98206 -1.862938,7.75992 -2.105379,10.67763 -0.448513,5.3961 0.317457,12.7212 -0.07511,18.1217 -0.162484,2.2341 -0.635409,5.5632 -1.579084,7.5946 -1.955942,4.2105 -5.453509,3.4994 -6.617092,1.0527 -0.904141,-1.9012 -4.010431,-4.3603 -5.714739,0.2256 -0.662984,1.7838 -0.617421,4.1266 -0.751935,5.7899 -0.264383,3.2674 -1.101712,4.446 -3.007742,5.414 -4.671231,2.3723 -6.16848,4.5424 -7.293814,5.1132 -5.901329,2.9932 -11.066042,0.7603 -3.684562,-6.1659 3.988776,-3.7428 2.615367,-7.7171 -0.451181,-10.2264 -3.57199,-2.9229 -3.571496,-1.0667 -3.684464,-6.5418 -0.0682,-3.3033 0.637583,-3.8146 2.481347,-3.6846 3.25305,0.2293 2.784079,-3.7245 -1.503871,-1.5039 -1.667245,0.8635 -3.630698,2.4571 -5.113121,3.6094 -5.341431,4.1517 -0.931321,8.3052 0.977476,10.5271 1.598258,1.8604 5.415161,4.9487 1.729511,10.076 -0.802835,1.1168 -3.691877,0.8269 -5.413975,0.4512 -2.23515,-0.4878 -6.00985,-1.5911 -7.369027,-1.4287 -5.270862,0.6295 -8.59191,-6.8269 -3.308595,-10.7527 3.798025,-2.8223 3.238521,-11.1602 -0.451082,-12.6327 -4.240706,-1.6923 -5.588616,-11.9986 -4.210858,-14.1364 3.819472,-5.92707 7.527953,-10.69259 10.677523,-13.98607 1.497348,-1.56584 3.344077,-3.9273 3.458923,-6.09079 0.312812,-5.89461 0.130363,-8.89889 -0.827149,-9.09844 -1.361055,-0.28366 -3.789822,-0.79859 -0.300755,-2.55656 0.928949,-0.46808 4.594536,-7.15604 0.526296,-11.73031 -2.419971,-2.72103 -5.087029,-6.97685 -6.466665,-9.92559 -1.893478,-4.04699 -8.18728,-6.34905 -9.173652,-0.30076 -0.284743,1.74582 -0.502081,8.56019 -0.451181,9.47441 0.244023,4.3767 2.863739,2.59778 4.210858,2.25581 6.782937,-1.72161 8.190542,3.64325 5.338762,6.39155 -1.308376,1.25955 -2.361066,2.89675 -3.534037,3.98522 -3.538485,3.28349 -6.575186,2.41068 -5.413975,-2.10538 1.014638,-3.94608 -0.652706,-7.34936 -5.865156,-2.40624 -1.786539,1.69413 -4.325408,4.0381 -5.940369,5.26355 -3.271335,2.48254 -6.770088,2.89142 -4.66204,-0.97747 1.638583,-3.00725 -1.872228,-6.64082 -3.834891,-8.04575 -2.233272,-1.59876 -3.087205,-8.06473 -1.353444,-9.32408 1.050417,-0.76301 5.184184,1.17327 5.865156,5.11322 0.43685,2.5274 1.621583,3.35505 3.15807,3.91 3.459614,1.24967 4.59414,-1.35947 3.458923,-3.75967 -1.173269,-2.48086 -4.927708,-6.20278 -6.616993,-6.16591 -3.030276,0.0633 -5.924951,-2.01238 -7.369027,-4.66204 -0.595578,-1.09282 -2.194825,-1.91493 -3.007742,-2.85732 -4.4163356,-5.12014 1.868078,-9.51858 6.316239,-7.66978 3.894586,1.61872 4.753362,2.60548 4.286071,-2.33102 -0.563951,-5.95786 3.626152,-5.05204 5.639516,-5.03801 3.58217,0.0257 5.519926,0.65923 5.940369,-3.38371 0.338806,-3.25779 3.070206,-4.98977 5.94037,-3.38381 3.695335,2.06793 6.59515,-2.02739 6.616992,-4.58682 0.01384,-1.66784 0.979058,-3.6392 3.684563,-6.46667 2.842787,-2.97087 5.727281,-4.80801 8.045749,-4.36118 2.365019,0.45573 3.099362,-0.0138 4.135645,-0.82715 0.730884,-0.57354 1.562678,-1.74246 2.481446,-1.87984 1.439332,-0.21536 2.284864,-0.66951 2.255807,-0.67682 z"
     id="path3240-6"
     style="fill:none;fill-opacity:1;fill-rule:evenodd;stroke:#000000;stroke-opacity:1;stroke-width:0.75590551;stroke-miterlimit:4;stroke-dasharray:none" />
  <path
     d="m 388.09369,328.2869 c 0,0 4.16183,-0.0633 5.89964,-0.10536 2.19256,-0.0524 4.32284,0.4837 5.74162,1.05348 3.57663,1.43657 7.53141,2.74554 10.64036,4.05609 6.04148,2.54657 7.68648,0.83396 10.16635,-0.84287 1.63186,-1.10329 4.12111,-2.84051 5.63625,-2.37035 1.4084,0.43695 3.1132,1.36372 4.79349,1.21151 1.00634,-0.0909 3.29357,0.68918 4.10867,1.42224 1.35038,1.21458 3.63267,1.76173 5.0042,3.21322 2.99529,3.16983 6.50017,2.58374 9.21813,1.47491 1.25402,-0.51167 4.42474,-1.21162 4.42474,-1.21162"
     id="path3280-9"
     style="fill:none;stroke:#ffffff;stroke-width:1;stroke-linecap:butt;stroke-linejoin:miter;stroke-miterlimit:4;stroke-opacity:1;stroke-dasharray:none" />
  <path
     d="m 338.48354,376.64155 c 2.21548,-6.70318 9.27841,-2.32124 5.86515,2.10538 -0.66644,0.86431 -0.81469,2.28852 -1.20311,3.30859 -1.53708,4.03711 0.44209,5.12934 1.57908,4.81237 2.97127,-0.82833 3.2741,1.94586 1.6543,4.51161 -1.40573,2.22656 -4.34666,4.35487 -6.01558,6.39155 -1.18059,1.44082 -3.41781,3.8769 -3.75968,-0.67682 -0.0652,-0.8653 0.18581,-2.29791 0.30075,-3.15807 0.3307,-2.47354 -0.61732,-3.41316 -1.27823,-3.60935 -1.57246,-0.46679 -3.05291,-2.82647 -0.97757,-5.038 1.13482,-1.20925 2.20728,-0.81213 2.18069,-3.75968 -0.0138,-1.58412 1.15706,-3.38341 1.6542,-4.88758 z"
     id="path3302-8"
     style="fill:none;fill-opacity:1;fill-rule:evenodd;stroke:#000000;stroke-width:0.75590551;stroke-miterlimit:4;stroke-dasharray:none;stroke-opacity:1" />
  <path
     d="m 383.37469,265.35343 c 0,0 2.06357,-1.36995 3.53414,-2.10548 1.40068,-0.70054 3.1556,-1.31915 4.96279,-1.27823 5.58259,0.12621 11.64106,0.16476 17.06898,0 4.12655,-0.12532 3.81601,-1.59183 4.21085,-2.33102 1.19719,-2.24128 6.7184,-3.2657 7.06828,-0.37597 0.25825,2.13306 -0.10862,3.76334 0.37596,5.56431 1.34861,5.01201 8.05109,2.12405 10.67753,0.0751 1.64214,-1.281 1.07562,-4.47366 6.76752,-4.73725 5.10096,-0.23276 7.51935,-4.66204 7.51935,-4.66204 m -23.3101,11.27913 c -2.17861,1.80235 -3.42018,3.47216 -3.75977,10.0008 -0.25302,4.86682 -0.2888,12.09896 -0.083,16.60297 0.31015,6.78195 -1.41412,5.00064 -2.09777,8.58706 -0.2628,1.37895 -0.61109,3.93709 -0.82714,5.41398 -0.66912,4.57348 0.73039,5.36732 2.70698,7.14339 0.72851,0.65458 1.47047,1.75293 2.03027,2.55656 0.84464,1.2127 1.81599,2.93203 2.55656,4.21095 2.89517,4.99927 3.62259,7.68441 -1.83951,10.89407 -4.38975,2.57959 -5.63181,4.34429 -4.05856,9.55941 0.66476,2.20352 1.83675,1.71982 2.04885,7.23619 0.19391,5.04404 -0.0731,8.57728 -0.14756,12.05845 -0.10042,4.68328 -3.21253,9.43823 -4.75939,10.8486 -8.63936,7.87694 -2.61814,7.89404 1.37232,12.12812 m -23.15098,6.64516 c 0,0 2.58582,0.72516 4.68379,0.73366 1.74087,0.01 6.48732,-0.18967 9.64964,-0.0563 4.31997,0.18205 6.20781,-3.11063 6.8281,-4.51438 0.65458,-1.48153 2.31965,-3.01575 3.55519,-4.0631 0.63788,-0.54073 1.65232,-1.03796 2.37006,-1.46711 3.43392,-2.05329 6.6418,-0.39237 8.95374,0.80887 3.87808,2.01504 11.14324,0.27881 10.85345,-0.0751 m 4.01863,49.94955 c -4.54057,-3.09896 -9.95663,-3.21124 -11.89488,0.57532 -1.28949,2.5191 -2.34396,5.11302 -7.6764,0.30955 -2.82885,-2.54826 -5.51478,-5.04651 -8.03794,-7.81418 -7.68609,-8.43071 -13.35298,-0.42627 -17.86904,4.77787 -1.43755,1.65667 -3.63416,2.81334 -5.54088,4.15186 -2.96485,2.08136 -6.60217,1.66457 -10.72042,0.48884 -0.55179,-2.92413 -1.08926,-5.76277 -3.71352,-8.05534 -1.83655,-1.60439 -2.79574,-3.41217 -2.8075,-9.77783 -0.01,-3.27558 0.28444,-5.88937 5.51933,-6.45609 2.16102,-0.23394 9.07304,-2.43677 8.25093,-9.60615 -0.37666,-3.28478 0.42272,-4.69861 3.87482,-9.62355 -3.20403,-1.77112 -5.83768,-5.73815 -5.45222,-9.24234 0.26596,-2.418 0.0119,-4.23913 3.80425,-7.09971 5.27659,-3.97988 2.91849,-6.81318 -3.41643,-11.55072 -2.24276,-1.67723 -5.54334,-3.11113 -7.73046,-5.67767 m 1.6709,77.08949 c -1.46671,-2.63701 -8.38999,-2.13522 -10.63572,4.45775 -1.96197,5.7598 -3.99124,8.92439 -8.27237,8.7203 -2.85732,1.77399 -4.84014,4.5809 -7.46154,6.66354 -4.66392,3.70532 -5.21018,11.64621 3.65699,12.26155 3.83183,0.26824 3.63346,4.86238 3.2485,8.18629 -0.51967,4.48582 0.75421,6.81911 2.89576,8.53805 2.18682,1.75521 4.15977,3.74001 6.78373,6.0309 2.52494,2.20451 5.75753,3.52801 9.93122,4.5555 1.58956,0.95 3.18199,1.31796 4.28054,2.41038 3.88846,3.86682 0.18769,8.71002 -3.22785,9.17978 -2.91325,0.40068 -5.04097,3.55212 -4.74901,4.88076 1.31421,0.13135 2.41285,0.11949 3.13613,0.81954 2.23228,2.16053 1.77665,3.9446 1.78505,5.14198 0.0217,3.12496 2.51654,5.65434 5.98613,5.73084 m -146.2633,-0.0899 c -0.90424,3.65086 4.24515,7.25764 10.37637,5.93444 2.34733,-1.77596 3.71955,-2.65381 4.82087,-3.99362 0.9157,-1.11397 1.91551,-1.42955 2.77982,-1.94359 1.0691,-0.6359 1.92669,-0.8392 2.78863,-1.90543 2.33675,-2.89043 3.54481,-3.33271 4.77224,-4.60462 1.72753,-1.79039 2.24404,-2.63928 3.30197,-4.1903 1.35908,2.12959 3.50301,5.08792 4.66343,8.89019 0.88101,2.88687 2.30295,2.69731 2.69898,4.68132 1.60132,8.02054 3.01772,11.0265 11.12079,10.25451 1.1792,3.7403 3.90299,3.89439 4.81385,6.75951 m -95.04531,21.05429 c -4.51942,-5.41328 -7.33691,-16.90264 -1.03816,-22.31523 7.00176,-6.01657 8.32871,-11.16053 -0.69125,-21.29732 M 421.79864,430.7811 c -0.54705,3.21035 -1.06988,5.32631 -0.45118,7.2186 0.41086,1.25659 0.79088,2.30305 0.75194,3.15817 -0.10516,2.3072 0.18373,5.49877 0.52639,7.89532 0.37933,2.65352 -0.25559,5.38798 -1.1279,6.31634 -2.23565,2.37925 -5.71048,5.72866 -7.59467,7.59457 -1.62227,1.60656 -3.93333,3.27064 -6.76742,4.36128 -1.87954,0.72327 -3.77183,1.88498 -6.24112,1.87984 -1.82845,0 -4.42197,0.0336 -6.24112,-0.15033 -8.47895,-0.85838 -7.97548,-1.09904 -12.03097,1.72941 -3.49678,2.43875 -5.68528,4.99917 -9.62484,9.32408 -3.93491,4.31968 -4.53503,6.21592 -5.038,7.51936 -2.23199,5.78381 -3.89676,4.29259 -6.01559,4.58682 -2.23613,0.31064 -6.73678,-0.0623 -7.51935,-0.0751 -3.34437,-0.0573 -2.92047,0.9245 -2.93253,2.40613 -0.0217,2.64947 0.60042,6.14694 0.37597,8.64736 -0.16249,1.80917 -0.23799,3.90526 -1.35354,5.33876 -1.41393,1.81688 -2.07316,2.74939 -2.1806,4.36129 -0.0993,1.48973 -1.35502,2.69443 -2.10548,3.98521 -0.59745,1.02779 -1.32201,2.07682 -1.95505,3.08296 -0.91056,1.44734 -1.90356,3.65056 -3.15817,4.81247 -1.51069,1.3991 -3.77776,4.36563 -5.33876,6.91784 -0.97609,1.59589 -1.28554,3.04619 -3.38371,4.58683 -3.52484,2.58819 -7.08636,7.11838 -7.89532,11.1287 -0.47194,2.33942 -0.49734,4.23715 -0.30085,7.97054 m 63.23818,-55.71874 c 0,0 6.4728,0.0208 9.24887,0 2.38558,-0.0178 3.04451,-0.11978 4.13565,-0.75193 1.18829,-0.68839 1.12602,-0.76597 3.68456,-0.90236 0.99111,-0.0524 3.45892,0.0751 3.45892,0.0751 m -25.942,-63.01264 c 2.90031,1.62169 3.38173,2.3923 3.45892,5.56431 0.13511,5.54809 1.7393,6.60967 2.63178,7.97063 0.45078,0.6872 1.93825,1.9341 1.42875,4.06043 -0.24728,1.03204 -0.21091,2.40643 -0.0751,3.45892 0.26003,2.01703 1.32508,3.04392 2.25581,4.4365 0.84325,1.26153 2.78526,2.96455 3.83489,4.06043 2.61902,2.73427 6.09633,4.81158 8.3465,6.91785 2.43529,2.27953 8.42448,5.94096 8.49693,22.33262 m -29.92719,0.60151 c -3.32055,-3.42018 0.2118,-8.89573 7.97054,-4.28597 1.3565,0.8059 5.09444,1.97897 9.77526,0.82705 1.06257,-0.26142 3.19444,-0.60032 4.28607,-0.67672 1.71814,-0.12019 3.5204,0.16574 4.36118,-0.75194 0.9082,-0.99112 3.38381,-0.67672 3.38381,-0.67672 m -5.33876,-14.28687 c 0,0 3.1552,1.3056 4.36119,1.27833 1.75273,-0.0395 4.96744,1.47066 6.99306,3.45892 2.89447,2.84101 7.61641,4.45419 9.54962,0.67672 0.53459,-1.04449 1.67307,-2.44764 3.83489,-3.15817 1.16595,-0.38318 2.60588,-0.55911 3.75977,-0.97747 4.0467,-1.46731 7.7366,0.48122 9.24877,2.70698 2.07543,3.05459 4.87384,3.24712 6.61709,3.15807 m -101.05526,26.68076 c 0,0 7.42941,9.29275 9.04388,11.30473 5.03227,6.27147 5.63032,-0.90137 6.02922,-3.63119 0.49319,-3.37521 2.6979,-4.13683 5.61817,-4.24782 1.73376,-0.0662 5.80911,0.2458 7.60504,-1.57582 m -88.60731,24.93237 c 0.84771,-2.81926 2.95151,-2.08907 3.15807,-6.39155 0.1528,-3.18229 2.86868,-5.27472 5.41398,-5.26355 0.99259,0 3.22685,-0.0553 4.21085,0.0751 2.40861,0.31854 5.53278,0.98034 6.91785,2.03016 2.61636,1.98302 3.86029,1.67535 7.29381,1.6543 2.35682,-0.0148 4.63635,-0.17958 6.99306,-0.15033 1.49962,0.0188 3.81186,-0.1443 5.18844,0.45108 2.49508,1.07928 8.94801,0.5264 8.94801,0.5264 m -21.05429,-86.39796 c 0,0 4.32738,5.03168 6.54187,6.54188 2.59946,1.7728 3.85516,0.38387 4.51162,-0.5263 1.71014,-2.37105 4.33993,-2.42521 5.038,-0.90236 0.50367,1.09855 1.62258,2.638 3.00784,0.82715 0.47678,-0.62335 2.61251,-1.21616 4.21086,-1.27833 2.46771,-0.0959 4.00469,-1.26232 5.48909,-3.45892 0.82755,-1.22447 1.52641,-1.94231 2.70699,-4.06044 2.52988,-4.53879 6.15188,-2.9518 8.04575,-0.67672 2.42531,2.91316 2.757,7.27029 6.16591,9.3992 m -37.59697,1.42865 c 0,0 -3.00982,4.65631 -3.00774,8.04585 0,3.09175 0.30026,7.17175 0.15042,10.30156 -0.2199,4.59147 -0.46284,3.13207 -1.35354,4.13564 -0.85561,0.96404 -0.0435,3.0026 0.0751,4.28607 0.0991,1.06782 0.47244,2.16231 0.5263,3.23339 0.12651,2.5104 0.0227,4.89588 -0.0751,8.19607 -0.0751,2.54184 -1.33803,6.19161 -3.45893,7.59467 -4.72104,3.12298 -1.62919,6.20198 1.05269,7.97053 2.87145,1.89358 4.99373,6.40193 6.01549,9.77517 1.20568,3.98057 0.5593,8.86795 -0.30076,14.88848 m -56.54588,-49.02653 c 0,0 6.35735,4.77876 8.57214,7.06827 2.94172,3.04085 4.38689,3.34427 8.94801,3.45892 m 5.33886,-13.61015 c 0,0 2.1634,-0.51097 2.78211,0.67672 2.08739,4.00736 4.89746,-0.10654 5.86515,-1.72941 1.85513,-3.11102 3.89242,-3.1895 6.54188,-3.15817 4.82492,0.0553 14.81327,0 14.81327,0 m -49.47771,39.92799 c 0.93507,-3.13177 4.99798,-6.32137 10.90316,-6.6922 5.58101,-0.35057 11.33418,-5.23657 5.03801,-9.32408 -2.10083,-1.36392 -2.95862,-6.80972 0.15033,-9.02332 3.66203,-2.60727 3.23832,-8.2881 2.85741,-14.13645 -0.0978,-1.50269 -0.69273,-3.68259 -0.67672,-5.18834 0.0385,-3.63059 0.14519,-8.99367 0.0751,-12.783 -0.0959,-5.26404 2.09757,-6.32483 4.21086,-6.91784 m -77.2243,71.35905 c 0.99319,1.90267 2.68316,3.6387 5.11322,5.18843 4.73142,3.01743 3.01851,5.33303 1.80462,6.46667 -4.51556,4.21728 2.22744,6.27512 4.28607,6.01548 3.01773,-0.38051 7.25092,2.86493 8.49693,5.63962 1.51761,3.37936 3.82738,6.04414 7.97054,5.71472 2.88469,-0.22939 5.15404,3.39419 7.06827,5.56431 2.41533,2.73832 3.50676,5.24279 5.86516,4.96289 0.6781,-0.081 2.88667,0.187 3.53413,0.45108 2.20313,0.8989 3.58198,-1.73307 4.9628,-3.68446 2.36037,-3.33607 5.35843,-4.78163 7.2186,-4.81237 2.86986,-0.0474 7.35914,-2.33922 7.2186,-5.94037 -0.1616,-4.14167 -0.12612,-10.0008 -0.37597,-13.3093 m -38.42412,16.54268 c 2.19245,10.87055 2.26628,6.98684 1.42866,17.7457 m -3.00774,10.60241 c 2.15697,1.28535 7.83019,0.48518 13.38451,0.22554 m -0.67673,-48.19928 c 1.77112,1.99557 4.63635,6.70634 3.98532,11.27903 -0.35185,2.47087 0.67475,5.37434 1.6542,7.36903 0.57364,1.16813 1.64105,3.10183 2.18069,4.28607 1.62416,3.56418 3.43303,6.25476 6.46667,9.54962 1.58551,1.7221 3.81463,1.85958 4.06043,7.74499 0.19777,4.7333 0.0188,10.67921 0.15043,15.41478 0.0978,3.53167 -1.14165,6.01272 -2.55657,7.89532 -0.99329,1.32162 -1.73623,2.97088 -3.00784,3.98532 -3.48462,2.78012 -6.31159,4.09008 -1.65419,8.19618 2.1206,1.86955 3.96713,2.70817 6.91784,3.30849 m -17.67058,-51.43264 c -0.52472,1.39911 -0.61851,2.4938 -0.60161,4.21086 0.0306,3.06813 -0.22564,7.69281 0,10.75273 0.15072,2.04262 0.25786,3.89261 1.05269,6.01549 0.8737,2.33349 0.87815,6.50758 -0.90226,8.3466 -1.5184,1.56821 -2.426,5.05382 -2.33102,7.14339 0.0721,1.57997 -0.20222,4.50291 0.60151,5.86515 0.89475,1.51623 2.00249,1.24661 2.93262,1.80463 0.93004,0.55812 2.75226,1.19491 3.83489,1.1279 1.53372,-0.0949 3.75968,0 3.75968,0 M 91.847197,575.30364 c -0.347306,4.75346 -0.193519,7.48664 5.038007,10.90316 9.770416,6.38078 8.626406,-2.53106 9.925586,-6.46666 1.21182,-3.67083 3.28942,-7.12254 5.94037,-9.47441 0.891,-0.79058 3.20551,-1.72734 4.06043,-2.55666 1.90376,-1.84663 3.56161,-1.94546 5.71473,-1.72941 6.70753,0.67277 8.80016,-4.14217 10.82795,-7.59467 4.94876,-8.42517 4.93651,-7.05779 12.70779,-6.99296 8.28305,0.0692 7.79767,-0.0415 14.58763,-5.86515 2.02562,-1.73713 4.04975,-4.90192 6.6923,-6.31634 0.95633,-0.51177 2.19493,-0.7886 3.60935,-1.35345 1.52423,-0.60872 2.64205,-0.81805 4.13565,-0.52639 1.66606,0.32546 2.96059,0.19273 5.71473,-1.6543 4.36395,-2.9264 5.5045,-0.59676 6.84263,0.82715 1.68325,1.79119 4.25652,2.52918 5.94037,2.48145 2.18939,-0.0642 6.76742,-0.15043 6.76742,-0.15043 m -43.8381,-8.49693 c -0.38822,3.22083 0.20647,6.17313 -4.36128,9.47451 -5.33481,3.85574 -4.47267,9.45681 -0.45109,10.52709 2.22043,0.59104 4.26196,3.60668 3.75968,4.9628 -0.7297,1.97027 1.25056,5.04245 2.03027,5.63961 1.95416,1.49676 1.80996,3.30267 2.33092,4.73716 0.45177,1.24383 1.19086,3.25314 1.95505,4.43649 1.46869,2.27419 4.25237,7.29382 4.21086,7.29382 m -59.77917,4.81246 c 0,0 2.47967,3.04293 3.53414,4.4364 0.99685,1.31747 1.38082,3.13158 3.38371,4.51162 0.83071,0.57245 2.93253,1.57908 2.93253,1.57908 m 17.52025,64.4413 c 4.84578,-5.80467 4.42938,-3.93086 3.23328,-7.51945 -0.28138,-0.84415 -1.31934,-1.11832 -1.50387,-2.63177 -0.15981,-1.31134 -0.30866,-2.08888 -0.15032,-2.70699 0.2799,-1.09262 1.52907,-2.11793 2.40613,-2.70699 1.19847,-0.80471 3.33844,-3.3333 4.88768,-4.51161 1.51949,-1.15578 1.82983,-3.32668 1.57898,-4.9628 -0.32773,-2.13839 0.76261,-4.258 2.25591,-5.26364 3.03275,-2.04233 5.12528,-6.19695 6.84263,-9.09844 1.086,-1.83477 0.69857,-3.80999 4.21086,-5.78994 1.63592,-0.92213 4.39716,-2.25265 5.5643,-3.3085 1.21053,-1.09509 5.01241,-1.41551 7.89542,-3.08296 1.46236,-0.84582 5.75526,-0.99101 7.82021,0.67673 1.2639,1.02086 2.88558,1.50861 4.66204,1.35344 2.97888,-0.26013 3.58553,0.35502 5.5643,1.50397 4.77827,2.7742 13.08376,11.12871 13.08376,11.12871 m -27.29541,-15.41478 c 0,0 -0.7811,-4.05351 1.05269,-5.18843 1.01276,-0.62681 3.19602,-1.82074 3.9101,-2.55657 1.36224,-1.40375 3.73714,-1.70865 5.63952,-2.10547 1.48993,-0.31074 3.0113,-0.42509 4.36128,-1.12791 0.84099,-0.43774 3.1812,-0.91412 4.21086,-0.97747 4.76947,-0.2888 8.06215,-4.16728 10.30155,-6.0907 m -33.01014,9.85037 c 3.05528,2.66182 3.43639,5.02408 3.30859,8.27139 M 20.11207,642.37672 c 0,0 -0.370829,3.96406 0.150426,4.88768 0.500006,0.88575 1.32666,1.65222 2.180593,2.63177 1.389223,1.59322 3.266294,3.62951 4.88768,4.06043 1.811445,0.48153 3.158959,1.15756 4.662039,2.33102 1.146385,0.89505 3.834891,1.42866 3.834891,1.42866 m -7.068273,-23.61085 c 1.940227,2.52226 3.678929,2.49587 5.489188,2.55656 5.010037,0.16792 10.539649,0.11712 14.286873,0.0751 2.458615,-0.0287 4.490067,0.82636 2.255806,3.83489 -0.90592,1.21982 -1.713598,1.85325 -2.706987,3.15817 -1.831311,2.40544 -3.023654,3.29011 -5.489188,5.5643 m 4.286071,7.89543 c 0,0 1.687408,-2.1721 2.706988,-2.63178 0.995959,-0.4491 2.386268,-1.13235 3.082955,-1.57908 1.669419,-1.07058 3.618541,-1.02393 5.489188,-1.35355 0.923908,-0.16278 5.225299,-1.26459 5.48909,-4.73715 0.13906,-1.83032 0.373793,-4.63743 0.150426,-6.54188 -0.303522,-2.58789 1.548248,-5.69891 6.316337,-7.66988 3.052811,-1.26192 7.293912,-7.81991 7.293814,-7.82011 m -14.4373,24.28768 c 4.366721,3.91247 5.433446,5.59405 7.293814,1.72941 2.582653,-5.36495 9.249162,-6.93109 8.49693,1.05269 -0.410263,4.35407 6.319806,13.0548 11.354354,13.00864 1.726249,-0.0158 4.127046,-0.43013 5.564303,0.5263 1.118711,0.74442 3.551827,-0.0475 4.662042,-1.57909 1.81688,-2.50694 8.16119,-1.79435 8.19617,-1.72941 m -24.513311,-0.30076 c 0,0 -3.849034,5.51845 -6.767429,8.72248 -2.68979,2.95308 -7.340266,5.84973 -3.38371,10.82795 1.172972,1.4758 2.177431,3.98156 2.255807,5.86515 0.07808,1.87351 0.03064,3.90793 -0.22564,5.48909 -0.506726,3.12545 -1.785946,5.41714 -5.338762,6.16591 -3.204225,0.67534 -7.594568,3.08296 -7.594568,3.08296 m -18.948912,-3.53414 c 0,0 10.09509,-1.10448 13.910905,0.15043 3.456848,1.13689 7.043169,4.75274 8.49693,8.34654 1.640263,4.0549 3.955074,7.1385 6.466665,8.6473 5.009049,3.0091 4.707108,3.3265 6.541878,4.5116 4.926729,3.1824 3.233392,9.8505 3.233392,9.8505"
     id="path2506-5"
     style="fill:none;stroke:#ffffff;stroke-width:1;stroke-linecap:butt;stroke-linejoin:miter;stroke-miterlimit:4;stroke-dasharray:none;stroke-opacity:1" />
  <text
     x="67.882248"
     y="180.82928"
     id="text5726"
     xml:space="preserve"
     style="font-style:normal;font-variant:normal;font-weight:normal;font-stretch:normal;font-size:30px;line-height:0%;font-family:Calibri;-inkscape-font-specification:Calibri;text-align:start;letter-spacing:0px;word-spacing:0px;writing-mode:lr-tb;text-anchor:start;fill:#000000;fill-opacity:1;stroke:none"><tspan
       x="67.882248"
       y="180.82928"
       id="tspan5728" /></text>
  <ellipse
     ry="4.2109499"
     rx="4.43648"
     cy="488.09903"
     cx="412.04504"
     id="tokyo"
     style="opacity:0.6;fill:#090909;fill-opacity:1;stroke:none;stroke-width:4.0250001;stroke-miterlimit:4;stroke-dasharray:12.075, 12.075;stroke-dashoffset:7.64750004;stroke-opacity:1" />
  <text
     id="tokyoText"
     y="506.40247"
     x="441.9512"
     style="font-style:normal;font-variant:normal;font-weight:bold;font-stretch:normal;font-size:21.33333397px;line-height:1.25;font-family:sans-serif;-inkscape-font-specification:'sans-serif, Bold';font-variant-ligatures:normal;font-variant-caps:normal;font-variant-numeric:normal;font-feature-settings:normal;text-align:start;letter-spacing:0px;word-spacing:0px;writing-mode:lr-tb;text-anchor:start;opacity:0.36000001;fill:#000000;fill-opacity:1;stroke:none"
     xml:space="preserve"><tspan
       style="font-style:normal;font-variant:normal;font-weight:bold;font-stretch:normal;font-size:21.33333397px;font-family:sans-serif;-inkscape-font-specification:'sans-serif, Bold';font-variant-ligatures:normal;font-variant-caps:normal;font-variant-numeric:normal;font-feature-settings:normal;text-align:start;writing-mode:lr-tb;text-anchor:start"
       y="506.40247"
       x="441.9512"
       id="tspan7728">TOKYO</tspan></text>
  <ellipse
     ry="4.2109499"
     rx="4.43648"
     cy="435.24268"
     cx="362.01993"
     id="yuzawa"
     style="fill:#090909;fill-opacity:1;stroke:none;stroke-width:4.0250001;stroke-miterlimit:4;stroke-dasharray:12.075, 12.07499999999999929;stroke-dashoffset:7.64750004;stroke-opacity:1;opacity:0.6" />
  <text
     id="yuzawaText"
     y="435.38098"
     x="166.34683"
     style="font-style:normal;font-variant:normal;font-weight:bold;font-stretch:normal;font-size:21.33333397px;line-height:1.25;font-family:sans-serif;-inkscape-font-specification:'sans-serif, Bold';font-variant-ligatures:normal;font-variant-caps:normal;font-variant-numeric:normal;font-feature-settings:normal;text-align:start;letter-spacing:0px;word-spacing:0px;writing-mode:lr-tb;text-anchor:start;opacity:0.36000001;fill:#000000;fill-opacity:1;stroke:none"
     xml:space="preserve"><tspan
       style="font-style:normal;font-variant:normal;font-weight:bold;font-stretch:normal;font-size:21.33333397px;font-family:sans-serif;-inkscape-font-specification:'sans-serif, Bold';font-variant-ligatures:normal;font-variant-caps:normal;font-variant-numeric:normal;font-feature-settings:normal;text-align:start;writing-mode:lr-tb;text-anchor:start"
       y="435.38098"
       x="166.34683"
       id="tspan7728-1">YUZAWA</tspan><tspan
       id="tspan1673"
       style="font-style:normal;font-variant:normal;font-weight:bold;font-stretch:normal;font-size:21.33333397px;font-family:sans-serif;-inkscape-font-specification:'sans-serif, Bold';font-variant-ligatures:normal;font-variant-caps:normal;font-variant-numeric:normal;font-feature-settings:normal;text-align:start;writing-mode:lr-tb;text-anchor:start"
       y="462.04764"
       x="166.34683">KOGEN</tspan></text>
  <ellipse
     ry="4.2109499"
     rx="4.43648"
     cy="378.75302"
     cx="406.29236"
     id="zao"
     style="fill:#090909;fill-opacity:1;stroke:none;stroke-width:4.0250001;stroke-miterlimit:4;stroke-dasharray:12.075, 12.07499999999999929;stroke-dashoffset:7.64750004;stroke-opacity:1;opacity:0.6" />
  <text
     id="yuzawaText-1"
     y="383.84909"
     x="450.71774"
     style="font-style:normal;font-variant:normal;font-weight:bold;font-stretch:normal;font-size:21.33333397px;line-height:1.25;font-family:sans-serif;-inkscape-font-specification:'sans-serif, Bold';font-variant-ligatures:normal;font-variant-caps:normal;font-variant-numeric:normal;font-feature-settings:normal;text-align:start;letter-spacing:0px;word-spacing:0px;writing-mode:lr-tb;text-anchor:start;opacity:0.36000001;fill:#000000;fill-opacity:1;stroke:none"
     xml:space="preserve"><tspan
       style="font-style:normal;font-variant:normal;font-weight:bold;font-stretch:normal;font-size:21.33333397px;font-family:sans-serif;-inkscape-font-specification:'sans-serif, Bold';font-variant-ligatures:normal;font-variant-caps:normal;font-variant-numeric:normal;font-feature-settings:normal;text-align:start;writing-mode:lr-tb;text-anchor:start"
       y="383.84909"
       x="450.71774"
       id="tspan7728-1-0">ZAO </tspan><tspan
       id="tspan1669"
       style="font-style:normal;font-variant:normal;font-weight:bold;font-stretch:normal;font-size:21.33333397px;font-family:sans-serif;-inkscape-font-specification:'sans-serif, Bold';font-variant-ligatures:normal;font-variant-caps:normal;font-variant-numeric:normal;font-feature-settings:normal;text-align:start;writing-mode:lr-tb;text-anchor:start"
       y="410.51575"
       x="450.71774">ONSEN</tspan></text>
  <ellipse
     ry="4.2109499"
     rx="4.43648"
     cy="317.13486"
     cx="429.12537"
     id="geto"
     style="fill:#090909;fill-opacity:1;stroke:none;stroke-width:4.0250001;stroke-miterlimit:4;stroke-dasharray:12.075, 12.07499999999999929;stroke-dashoffset:7.64750004;stroke-opacity:1;opacity:0.6" />
  <text
     id="getoText"
     y="324.35571"
     x="229.19897"
     style="font-style:normal;font-variant:normal;font-weight:bold;font-stretch:normal;font-size:21.33333397px;line-height:1.25;font-family:sans-serif;-inkscape-font-specification:'sans-serif, Bold';font-variant-ligatures:normal;font-variant-caps:normal;font-variant-numeric:normal;font-feature-settings:normal;text-align:start;letter-spacing:0px;word-spacing:0px;writing-mode:lr-tb;text-anchor:start;opacity:0.36000001;fill:#000000;fill-opacity:1;stroke:none"
     xml:space="preserve"><tspan
       style="font-style:normal;font-variant:normal;font-weight:bold;font-stretch:normal;font-size:21.33333397px;font-family:sans-serif;-inkscape-font-specification:'sans-serif, Bold';font-variant-ligatures:normal;font-variant-caps:normal;font-variant-numeric:normal;font-feature-settings:normal;text-align:start;writing-mode:lr-tb;text-anchor:start"
       y="324.35571"
       x="229.19897"
       id="tspan7728-1-0-8">GETO KOGEN</tspan></text>
  <ellipse
     ry="4.2109499"
     rx="4.43648"
     cy="135.11325"
     cx="396.80374"
     id="niseko"
     style="fill:#090909;fill-opacity:1;stroke:none;stroke-width:4.0250001;stroke-miterlimit:4;stroke-dasharray:12.075, 12.07499999999999929;stroke-dashoffset:7.64750004;stroke-opacity:1;opacity:0.6" />
  <text
     id="nisekoText"
     y="143.42165"
     x="284.13025"
     style="font-style:normal;font-variant:normal;font-weight:bold;font-stretch:normal;font-size:21.33333397px;line-height:1.25;font-family:sans-serif;-inkscape-font-specification:'sans-serif, Bold';font-variant-ligatures:normal;font-variant-caps:normal;font-variant-numeric:normal;font-feature-settings:normal;text-align:start;letter-spacing:0px;word-spacing:0px;writing-mode:lr-tb;text-anchor:start;opacity:0.36000001;fill:#000000;fill-opacity:1;stroke:none"
     xml:space="preserve"><tspan
       style="font-style:normal;font-variant:normal;font-weight:bold;font-stretch:normal;font-size:21.33333397px;font-family:sans-serif;-inkscape-font-specification:'sans-serif, Bold';font-variant-ligatures:normal;font-variant-caps:normal;font-variant-numeric:normal;font-feature-settings:normal;text-align:start;writing-mode:lr-tb;text-anchor:start"
       y="143.42165"
       x="284.13025"
       id="tspan7728-1-0-8-8">NISEKO</tspan></text>
  <ellipse
     ry="4.2109499"
     rx="4.43648"
     cy="186.10764"
     cx="398.48059"
     id="hakodate"
     style="fill:#090909;fill-opacity:1;stroke:none;stroke-width:4.0250001;stroke-miterlimit:4;stroke-dasharray:12.075, 12.07499999999999929;stroke-dashoffset:7.64750004;stroke-opacity:1;opacity:0.6" />
  <text
     id="hakodateText"
     y="194.03673"
     x="418.82535"
     style="font-style:normal;font-variant:normal;font-weight:bold;font-stretch:normal;font-size:21.33333397px;line-height:1.25;font-family:sans-serif;-inkscape-font-specification:'sans-serif, Bold';font-variant-ligatures:normal;font-variant-caps:normal;font-variant-numeric:normal;font-feature-settings:normal;text-align:start;letter-spacing:0px;word-spacing:0px;writing-mode:lr-tb;text-anchor:start;opacity:0.36000001;fill:#000000;fill-opacity:1;stroke:none"
     xml:space="preserve"><tspan
       style="font-style:normal;font-variant:normal;font-weight:bold;font-stretch:normal;font-size:21.33333397px;font-family:sans-serif;-inkscape-font-specification:'sans-serif, Bold';font-variant-ligatures:normal;font-variant-caps:normal;font-variant-numeric:normal;font-feature-settings:normal;text-align:start;writing-mode:lr-tb;text-anchor:start"
       y="194.03673"
       x="418.82535"
       id="tspan7728-1-0-8-8-1">HAKODATE</tspan></text>
  <ellipse
     ry="4.2109499"
     rx="4.43648"
     cy="122.23991"
     cx="416.89523"
     id="sapporo"
     style="opacity:0.6;fill:#090909;fill-opacity:1;stroke:none;stroke-width:4.0250001;stroke-miterlimit:4;stroke-dasharray:12.075, 12.075;stroke-dashoffset:7.64750004;stroke-opacity:1" />
  <text
     id="sapporoText"
     y="111.87914"
     x="297.00546"
     style="font-style:normal;font-variant:normal;font-weight:bold;font-stretch:normal;font-size:21.33333397px;line-height:1.25;font-family:sans-serif;-inkscape-font-specification:'sans-serif, Bold';font-variant-ligatures:normal;font-variant-caps:normal;font-variant-numeric:normal;font-feature-settings:normal;text-align:start;letter-spacing:0px;word-spacing:0px;writing-mode:lr-tb;text-anchor:start;opacity:0.36000001;fill:#000000;fill-opacity:1;stroke:none"
     xml:space="preserve"><tspan
       style="font-style:normal;font-variant:normal;font-weight:bold;font-stretch:normal;font-size:21.33333397px;font-family:sans-serif;-inkscape-font-specification:'sans-serif, Bold';font-variant-ligatures:normal;font-variant-caps:normal;font-variant-numeric:normal;font-feature-settings:normal;text-align:start;writing-mode:lr-tb;text-anchor:start"
       y="111.87914"
       x="297.00546"
       id="tspan7728-1-0-8-8-6">SAPPORO</tspan></text>
  <path
     id="trainPath"
     d="m 412.2491,488.90588 c -31.63169,-7.35023 -50.66255,-39.4022 -50.66255,-53.42493 0,-14.02274 10.01624,-3.00488 24.03898,-14.02274 14.02274,-11.01786 19.03086,-28.04547 20.03248,-42.06821 1.00163,-14.02274 6.00975,0 17.02761,-39.06334 11.01787,-39.06334 14.02274,-31.05034 13.02111,-54.0877 -1.00162,-23.03735 -28.04547,-13.02111 -35.05684,-42.06821 -7.01137,-29.04709 -17.4027,-31.75232 -19.03086,-43.06983 -1.62815,-11.31751 18.02924,-7.01137 16.02599,-16.02599 -2.00325,-9.01461 1.84399,0.99655 -16.02599,-8.01299 -17.86997,-9.00954 -9.01461,-20.03248 -1.00162,-28.04547 8.01299,-8.01299 20.03248,-15.02436 24.03898,-19.03086 4.00649,-4.0065 5.00812,-7.01137 13.02111,-8.01299"
     style="fill:none;stroke:#000000;stroke-width:1.88976378;stroke-linecap:butt;stroke-linejoin:round;stroke-miterlimit:4;stroke-dasharray:1.88976378,1.88976378;stroke-dashoffset:0;stroke-opacity:1;opacity:0.75" />
  <path
     id="scrolled"
     d="m 411.66749,646.8246 c 46.07471,27.04385 75.12181,28.04547 75.12181,28.04547 l 4.0065,-38.06171"
     style="fill:none;stroke:none;stroke-width:1px;stroke-linecap:butt;stroke-linejoin:miter;stroke-opacity:1" />
</svg>
