<?xml version="1.0" encoding="UTF-8" standalone="no"?>
<svg
   xmlns:dc="http://purl.org/dc/elements/1.1/"
   xmlns:cc="http://creativecommons.org/ns#"
   xmlns:rdf="http://www.w3.org/1999/02/22-rdf-syntax-ns#"
   xmlns:svg="http://www.w3.org/2000/svg"
   xmlns="http://www.w3.org/2000/svg"
   xmlns:xlink="http://www.w3.org/1999/xlink"
   id="svg5373"
   width="460.79999pt"
   viewBox="0 0 460.8 99.999998"
   version="1.1"
   height="100pt">
  <metadata
     id="metadata5377">
    <rdf:RDF>
      <cc:Work
         rdf:about="">
        <dc:format>image/svg+xml</dc:format>
        <dc:type
           rdf:resource="http://purl.org/dc/dcmitype/StillImage" />
        <dc:title></dc:title>
      </cc:Work>
    </rdf:RDF>
  </metadata>
  <defs
     style="stroke-linecap:butt;stroke-linejoin:round"
     id="defs5358">
    <linearGradient
       id="linearGradient5926">
      <stop
         id="stop5922"
         offset="0"
         style="stop-color:#9f0c90;stop-opacity:1" />
      <stop
         id="stop5924"
         offset="1"
         style="stop-color:#ff8a74;stop-opacity:0" />
    </linearGradient>
    <style
       id="style5356"
       type="text/css">
*{stroke-linecap:butt;stroke-linejoin:round;}
  </style>
    <linearGradient
       gradientUnits="userSpaceOnUse"
       y2="182.43491"
       x2="85.012314"
       y1="180.17628"
       x1="72.734184"
       id="linearGradient5928"
       xlink:href="#linearGradient5926" />
  </defs>
  <g
     transform="matrix(1,0,0,0.25394238,0,12.237501)"
     style="stroke-linecap:butt;stroke-linejoin:round"
     id="figure_1">
    <g
       style="stroke-linecap:butt;stroke-linejoin:round"
       id="patch_1">
      <path
         id="path5360"
         style="fill:#ffffff;stroke-linecap:butt;stroke-linejoin:round"
         d="M 0,345.6 H 460.8 V 0 H 0 Z" />
    </g>
    <g
       style="stroke-linecap:butt;stroke-linejoin:round"
       id="axes_1">
      <g
         style="stroke-linecap:butt;stroke-linejoin:round"
         id="line2d_1">
        <path
           transform="matrix(1.383454,0,0,1.2765987,-94.767922,-79.491421)"
           id="gradient"
           style="fill:url(#linearGradient5928);stroke:#1f77b4;stroke-width:1.5;stroke-linecap:square;stroke-linejoin:round;fill-opacity:1"
           d="m 73.700413,306.21642 6.035124,-16.02293 5.90281,-4.70698 5.90281,-7.57708 5.90281,-9.75658 5.902813,-3.98475 5.90281,-3.15446 5.90281,-4.93655 5.90281,-4.26746 5.90281,-12.56166 5.90281,-15.6198 5.90281,-19.3546 5.90281,-16.65967 5.90281,-17.40084 5.90281,-19.03755 5.90281,-13.62787 5.90281,18.18517 5.90281,13.53369 5.90281,2.89222 5.90281,17.52494 5.90281,8.13501 5.90281,1.04106 5.9028,14.23145 5.90281,14.02712 5.90281,11.16426 5.90281,3.47545 5.90281,-7.51896 5.90281,-7.99771 5.90281,-10.3274 5.90281,-12.95141 5.90281,-14.25795 5.90281,-18.83522 5.90281,-48.25647 5.90281,-29.006087 5.90281,-37.445661 5.90281,-1.593142 5.90281,42.909237 5.90281,35.943013 5.90281,44.62713 5.90281,14.95193 5.90281,12.97559 5.90281,11.34946 5.90281,10.42159 5.90281,7.6722 5.90281,8.57095 5.90281,8.80344 5.90281,0.063 5.90281,6.2667 5.90281,4.39176 5.90281,2.98722 5.90281,3.7027 5.90281,0.22657 5.90281,7.16332 5.90281,8.43401 5.90281,4.53622 6.37061,17.00506"
           clip-path="url(#p8c0a8b01a3)" />
      </g>
    </g>
  </g>
  <defs
     id="defs5371">
    <clipPath
       style="stroke-linecap:butt;stroke-linejoin:round"
       id="p8c0a8b01a3">
      <rect
         style="stroke-linecap:butt;stroke-linejoin:round"
         id="rect5368"
         y="41.472"
         x="57.599998"
         width="357.12"
         height="266.112" />
    </clipPath>
  </defs>
</svg>
